<svg width="39" height="34" viewBox="0 0 39 34" fill="none" xmlns="http://www.w3.org/2000/svg">
<g clip-path="url(#clip0_42_9994)">
<path fill-rule="evenodd" clip-rule="evenodd" d="M7.8334 2.593C6.03981 11.362 2.65913 28.9632 3.48516 29.2164C4.51769 29.5329 7.3364 29.5497 8.16916 28.6754C8.55204 28.2735 8.56883 26.9235 8.58612 25.534C8.60643 23.9013 8.62743 22.2139 9.24373 21.9452C10.3846 21.4477 13.5198 20.432 14.215 20.9275C14.7232 21.2896 15.0533 23.7087 15.2681 25.283C15.3472 25.8629 15.4107 26.3281 15.4617 26.5337C15.6511 27.2977 20.4933 26.2405 20.7307 25.4661C20.9681 24.6917 12.7068 2.81603 11.6743 2.49954C10.8482 2.24635 8.76951 2.45635 7.8334 2.593ZM10.1895 11.022C9.62508 12.8142 8.09661 17.6671 8.72449 18.1146C9.41977 18.6101 13.498 17.7422 13.5667 17.0573C13.6355 16.3724 10.489 10.0653 10.3341 10.5599C10.2996 10.6725 10.2501 10.8296 10.1895 11.022Z" fill="#585858"/>
<path d="M7.8334 2.593L7.68896 1.60349L6.99436 1.70488L6.85369 2.39261L7.8334 2.593ZM8.16916 28.6754L7.44506 27.9857L7.44506 27.9857L8.16916 28.6754ZM8.58612 25.534L7.5862 25.5215L7.5862 25.5215L8.58612 25.534ZM9.24373 21.9452L8.84402 21.0285L8.84402 21.0285L9.24373 21.9452ZM14.215 20.9275L13.6347 21.7418L13.6347 21.7418L14.215 20.9275ZM15.2681 25.283L14.2773 25.4182L14.2773 25.4182L15.2681 25.283ZM15.4617 26.5337L16.4323 26.2931L16.4323 26.2931L15.4617 26.5337ZM8.72449 18.1146L8.14413 18.9289L8.14413 18.9289L8.72449 18.1146ZM10.1895 11.022L9.23573 10.7216L9.23573 10.7216L10.1895 11.022ZM13.5667 17.0573L12.5717 16.9574L12.5717 16.9574L13.5667 17.0573ZM10.3341 10.5599L9.37977 10.2612L9.37803 10.2669L10.3341 10.5599ZM3.77821 28.2603C4.17667 28.3825 4.31652 28.6969 4.33735 28.7449C4.37165 28.824 4.37344 28.8689 4.36861 28.8342C4.36036 28.7749 4.35284 28.6364 4.36075 28.3917C4.3761 27.9167 4.44263 27.2112 4.55608 26.3074C4.7818 24.5092 5.17962 22.0304 5.66199 19.2703C6.62585 13.7551 7.91738 7.17273 8.81312 2.79339L6.85369 2.39261C5.95584 6.78225 4.66022 13.385 3.69185 18.926C3.20811 21.694 2.80354 24.211 2.57165 26.0583C2.4563 26.9773 2.38022 27.7569 2.36179 28.3271C2.35281 28.6051 2.35561 28.8793 2.38771 29.1099C2.40306 29.2202 2.43253 29.3793 2.50238 29.5404C2.55875 29.6705 2.74201 30.0346 3.1921 30.1725L3.77821 28.2603ZM7.44506 27.9857C7.4145 28.0178 7.27962 28.1171 6.95007 28.2136C6.64202 28.3039 6.25476 28.3654 5.83238 28.3949C4.96156 28.4558 4.1337 28.3693 3.77821 28.2603L3.1921 30.1725C3.86915 30.3801 4.96692 30.4603 5.97177 30.39C6.48723 30.354 7.02532 30.2756 7.51226 30.133C7.97769 29.9967 8.50744 29.7702 8.89326 29.3651L7.44506 27.9857ZM7.5862 25.5215C7.57739 26.2294 7.56871 26.868 7.51937 27.3789C7.49481 27.6333 7.46312 27.8205 7.42844 27.948C7.38786 28.0973 7.3695 28.0651 7.44506 27.9857L8.89326 29.3651C9.16026 29.0848 9.28758 28.7331 9.35837 28.4728C9.43506 28.1907 9.48045 27.8783 9.51011 27.5712C9.56921 26.9592 9.57756 26.2281 9.58604 25.5464L7.5862 25.5215ZM8.84402 21.0285C8.33391 21.251 8.08277 21.701 7.95587 22.017C7.82078 22.3534 7.74635 22.7371 7.6996 23.1005C7.60582 23.8297 7.59612 24.724 7.5862 25.5215L9.58604 25.5464C9.59643 24.7113 9.60739 23.9456 9.68326 23.3557C9.72134 23.0596 9.76898 22.869 9.8118 22.7624C9.8628 22.6354 9.8454 22.7737 9.64345 22.8618L8.84402 21.0285ZM14.7954 20.1131C14.5131 19.9119 14.1974 19.8434 13.9686 19.8158C13.724 19.7862 13.4676 19.791 13.2243 19.8108C12.7368 19.8504 12.1843 19.9608 11.6532 20.094C10.5892 20.3609 9.46763 20.7566 8.84402 21.0285L9.64345 22.8618C10.1607 22.6363 11.1771 22.2754 12.1398 22.0339C12.622 21.9129 13.0549 21.8312 13.3865 21.8042C13.5527 21.7907 13.6642 21.7935 13.7286 21.8013C13.8088 21.811 13.7432 21.8192 13.6347 21.7418L14.7954 20.1131ZM16.2589 25.1478C16.1525 24.3681 16.0121 23.3357 15.8314 22.4506C15.7414 22.0101 15.6352 21.5739 15.5077 21.2092C15.4439 21.0271 15.3665 20.8383 15.2702 20.666C15.1821 20.5084 15.034 20.2832 14.7954 20.1131L13.6347 21.7418C13.5231 21.6623 13.4965 21.5919 13.5245 21.642C13.5444 21.6775 13.5778 21.7494 13.6198 21.8696C13.7038 22.1095 13.7888 22.4444 13.8718 22.8507C14.0369 23.6593 14.1689 24.6237 14.2773 25.4182L16.2589 25.1478ZM16.4323 26.2931C16.3981 26.1549 16.3433 25.7662 16.2589 25.1478L14.2773 25.4182C14.3512 25.9595 14.4234 26.5012 14.4911 26.7743L16.4323 26.2931ZM19.7746 25.173C19.8563 24.9064 20.0301 24.8415 19.8972 24.9283C19.819 24.9793 19.677 25.0528 19.4626 25.1385C19.0403 25.3074 18.4653 25.4736 17.8726 25.5982C17.2759 25.7236 16.7168 25.7951 16.3237 25.7982C16.2287 25.7989 16.1524 25.7955 16.0939 25.7899C16.065 25.7871 16.043 25.784 16.0271 25.7812C16.011 25.7784 16.0041 25.7765 16.0048 25.7767C16.0052 25.7768 16.0183 25.7804 16.0403 25.7903C16.0619 25.8001 16.0996 25.8192 16.1449 25.8527C16.2406 25.9237 16.3761 26.0664 16.4323 26.2931L14.4911 26.7743C14.6531 27.428 15.2405 27.639 15.4606 27.7012C15.7452 27.7817 16.0602 27.8003 16.3393 27.7981C16.9148 27.7936 17.6166 27.6957 18.2839 27.5554C18.955 27.4144 19.647 27.2188 20.2052 26.9955C20.4812 26.8852 20.7578 26.755 20.9907 26.6029C21.1687 26.4867 21.5457 26.2194 21.6868 25.7591L19.7746 25.173ZM11.3812 3.45564C11.2376 3.41161 11.1459 3.34432 11.1124 3.31814C11.073 3.28739 11.0522 3.26414 11.0505 3.26229C11.048 3.25949 11.0686 3.2829 11.1137 3.35138C11.2018 3.48494 11.3243 3.69975 11.4805 4.00313C11.7897 4.60397 12.186 5.46399 12.6412 6.5113C13.5494 8.60083 14.6659 11.3749 15.7458 14.1714C16.8254 16.9668 17.8642 19.7734 18.6171 21.9256C18.994 23.0032 19.2962 23.9078 19.4955 24.5616C19.5959 24.8906 19.6657 25.1414 19.706 25.313C19.7266 25.4006 19.7351 25.4489 19.7376 25.4675C19.7389 25.477 19.7363 25.4623 19.7358 25.4316C19.7356 25.4175 19.7324 25.3109 19.7746 25.173L21.6868 25.7591C21.7365 25.5971 21.7365 25.456 21.7355 25.3974C21.7342 25.3222 21.7269 25.253 21.7195 25.1985C21.7046 25.0888 21.68 24.9703 21.6529 24.855C21.5978 24.6209 21.5134 24.3221 21.4086 23.9782C21.1976 23.2862 20.8852 22.3522 20.5049 21.2652C19.7433 19.088 18.6967 16.2607 17.6116 13.4508C16.5268 10.642 15.3992 7.83943 14.4754 5.71406C14.0147 4.65392 13.598 3.74693 13.2587 3.08784C13.0906 2.76127 12.93 2.47288 12.7837 2.25085C12.7117 2.14153 12.6274 2.02404 12.533 1.91986C12.4717 1.8521 12.2773 1.63846 11.9673 1.54345L11.3812 3.45564ZM7.97785 3.58251C8.42123 3.51779 9.1433 3.43481 9.84631 3.39877C10.6041 3.35992 11.1601 3.38786 11.3812 3.45564L11.9673 1.54345C11.3624 1.35803 10.466 1.36437 9.74392 1.40139C8.96703 1.44122 8.18169 1.53156 7.68896 1.60349L7.97785 3.58251ZM9.30485 17.3002C9.47993 17.425 9.54631 17.574 9.56531 17.6237C9.58543 17.6763 9.58304 17.6967 9.57944 17.6592C9.57216 17.5834 9.57368 17.4311 9.60237 17.1857C9.65856 16.7051 9.79573 16.0505 9.97989 15.3156C10.3457 13.8558 10.8599 12.2223 11.1433 11.3224L9.23573 10.7216C8.9547 11.6139 8.42244 13.3029 8.03988 14.8295C7.84985 15.5878 7.68735 16.3423 7.6159 16.9535C7.58078 17.2539 7.56149 17.5682 7.5886 17.8504C7.60219 17.992 7.63079 18.1643 7.69723 18.338C7.76255 18.5088 7.89056 18.7482 8.14413 18.9289L9.30485 17.3002ZM12.5717 16.9574C12.6084 16.5921 12.8546 16.4552 12.773 16.5156C12.7443 16.5368 12.658 16.589 12.4903 16.6597C12.164 16.7973 11.6909 16.9386 11.1696 17.0511C10.6513 17.1629 10.1307 17.2366 9.71828 17.2558C9.51057 17.2654 9.35552 17.26 9.25382 17.2473C9.11923 17.2304 9.18397 17.214 9.30485 17.3002L8.14413 18.9289C8.43882 19.1389 8.78311 19.2039 9.00489 19.2317C9.25957 19.2636 9.53774 19.2663 9.81121 19.2536C10.3611 19.228 10.9948 19.1348 11.5915 19.0061C12.1853 18.8779 12.7881 18.7048 13.2676 18.5025C13.5027 18.4033 13.7517 18.2792 13.9619 18.1238C14.1192 18.0076 14.5079 17.6937 14.5617 17.1572L12.5717 16.9574ZM11.2885 10.8587C11.2405 11.0117 11.0644 11.3903 10.5935 11.5048C10.209 11.5983 9.92832 11.4294 9.87682 11.3981C9.74259 11.3164 9.6895 11.231 9.73808 11.292C9.79328 11.3613 9.8995 11.5195 10.054 11.7802C10.3522 12.283 10.7457 13.0223 11.1392 13.8122C11.5318 14.6002 11.9141 15.4178 12.1915 16.0733C12.3309 16.4028 12.4379 16.6773 12.5061 16.8801C12.5406 16.9824 12.5599 17.0511 12.569 17.0908C12.585 17.1601 12.5586 17.0885 12.5717 16.9574L14.5617 17.1572C14.5835 16.9405 14.5405 16.7394 14.5179 16.6412C14.4884 16.5135 14.447 16.377 14.4017 16.2423C14.3104 15.971 14.1816 15.6442 14.0333 15.2938C13.7353 14.5896 13.3342 13.733 12.9293 12.9204C12.5255 12.1097 12.1076 11.3222 11.7744 10.7602C11.6132 10.4883 11.4488 10.2296 11.3025 10.046C11.2504 9.98054 11.1139 9.80969 10.9166 9.68962C10.8335 9.63908 10.5264 9.46281 10.1209 9.56142C9.62903 9.68103 9.43738 10.0772 9.37979 10.2612L11.2885 10.8587ZM11.1433 11.3224C11.2034 11.1317 11.2543 10.9702 11.2902 10.853L9.37803 10.2669C9.34492 10.3749 9.29684 10.5276 9.23573 10.7216L11.1433 11.3224Z" fill="#585858"/>
<path d="M27.6343 10.2179L27.8525 11.5099C28.0364 12.5991 27.3026 13.6311 26.2135 13.8151L24.6155 14.0849C23.5451 14.2657 22.824 15.2799 23.0047 16.3503C23.1855 17.4206 24.1997 18.1418 25.2701 17.961L26.8681 17.6911C27.9572 17.5072 28.9893 18.241 29.1732 19.3302L29.8048 23.0702C29.957 23.9716 30.8111 24.5789 31.7125 24.4266C32.6138 24.2744 33.2211 23.4203 33.0689 22.519L32.4373 18.7789C32.2533 17.6898 32.9871 16.6578 34.0763 16.4738L35.4703 16.2384C36.5406 16.0576 37.2618 15.0434 37.081 13.9731C36.9003 12.9027 35.886 12.1816 34.8157 12.3623L33.4217 12.5977C32.3326 12.7817 31.3005 12.0479 31.1166 10.9587L30.8984 9.66671C30.7462 8.76536 29.8921 8.15807 28.9907 8.31029C28.0894 8.46251 27.4821 9.31659 27.6343 10.2179Z" fill="#585858" stroke="#585858"/>
</g>
<defs>
<clipPath id="clip0_42_9994">
<rect width="39" height="34" fill="white"/>
</clipPath>
</defs>
</svg>
