<svg width="1414" height="526" viewBox="0 0 1414 526" fill="none" xmlns="http://www.w3.org/2000/svg">
<path d="M472.378 264.893C463.656 264.893 316.941 265.543 307.721 265.348C307.057 265.348 306.683 264.649 307.358 264.453C313.172 262.517 319.765 262.908 325.808 261.538C329.358 260.727 331.549 259.169 334.01 257.344C336.055 255.777 338.697 254.617 341.651 253.989C344.349 253.439 347.214 253.379 349.957 253.814C352.937 254.29 355.522 255.436 358.357 256.163C365.406 257.952 372.259 256.254 377.294 252.738C381.447 249.844 385.517 247.146 391.166 245.553C395.89 244.253 401.133 243.98 405.857 245.42C411.245 247.062 414.931 250.362 419.987 252.347C425.978 254.702 433.152 254.15 439.766 254.856C446.38 255.562 451.467 259.322 457.271 261.482C459.166 262.3 461.355 262.756 463.604 262.803C464.897 262.724 466.183 262.601 467.456 262.433C469.45 262.272 471.35 262.307 472.647 263.432C473.042 263.733 472.969 264.893 472.378 264.893Z" fill="white" fill-opacity="0.25"/>
<path d="M1135.71 359.416C1129.34 359.416 1022.23 359.892 1015.5 359.752C1015.01 359.752 1014.75 359.263 1015.23 359.102C1019.48 357.704 1024.29 357.97 1028.73 356.97C1031.32 356.383 1032.88 355.237 1034.71 353.929C1036.2 352.786 1038.13 351.938 1040.28 351.476C1042.26 351.078 1044.35 351.035 1046.36 351.35C1048.53 351.7 1050.42 352.538 1052.49 353.063C1057.63 354.37 1062.64 353.133 1066.31 350.567C1069.34 348.47 1072.32 346.457 1076.43 345.318C1078.12 344.808 1079.94 344.536 1081.79 344.52C1083.63 344.503 1085.47 344.741 1087.17 345.22C1091.09 346.422 1093.79 348.827 1097.48 350.281C1101.86 352 1107.09 351.595 1111.92 352.112C1116.75 352.629 1120.47 355.369 1124.7 356.949C1126.08 357.547 1127.68 357.88 1129.32 357.914C1130.27 357.914 1131.2 357.725 1132.14 357.648C1133.59 357.522 1134.98 357.55 1135.96 358.347C1136.17 358.578 1136.13 359.416 1135.71 359.416Z" fill="white" fill-opacity="0.25"/>
<path d="M132.732 449.843C126.368 449.843 19.2513 450.311 12.5131 450.172C12.0355 450.172 11.7759 449.682 12.2535 449.522C16.4999 448.124 21.307 448.389 25.7508 447.425C28.3464 446.838 29.9038 445.691 31.7415 444.384C33.2375 443.243 35.1639 442.395 37.3169 441.931C39.2878 441.537 41.377 441.493 43.3803 441.805C45.5606 442.154 47.4398 442.993 49.5163 443.524C54.7076 444.832 59.66 443.587 63.3354 441.022C66.3671 438.925 69.3469 436.919 73.4688 435.78C75.1499 435.267 76.9699 434.994 78.8151 434.976C80.6604 434.958 82.4914 435.196 84.1939 435.675C88.1289 436.877 90.818 439.289 94.5141 440.736C98.8852 442.455 104.118 442.05 108.956 442.567C113.794 443.084 117.491 445.831 121.737 447.404C123.117 448.004 124.715 448.338 126.357 448.368C127.302 448.368 128.226 448.18 129.171 448.103C130.625 447.984 132.005 448.012 132.992 448.802C133.199 448.99 133.147 449.843 132.732 449.843Z" fill="white" fill-opacity="0.25"/>
<path d="M1147.73 177.253C1141.37 177.253 1034.25 177.728 1027.53 177.588C1027.04 177.588 1026.78 177.099 1027.26 176.938C1031.5 175.54 1036.32 175.806 1040.75 174.841C1043.35 174.254 1044.91 173.108 1046.74 171.801C1048.2 170.642 1050.09 169.77 1052.21 169.278C1054.19 168.88 1056.28 168.836 1058.29 169.152C1060.46 169.501 1062.35 170.34 1064.41 170.864C1069.61 172.171 1074.57 170.934 1078.24 168.369C1081.27 166.272 1084.24 164.259 1088.37 163.12C1090.05 162.61 1091.87 162.338 1093.72 162.321C1095.57 162.304 1097.4 162.543 1099.1 163.022C1103.03 164.224 1105.73 166.628 1109.41 168.082C1113.79 169.802 1119.03 169.396 1123.85 169.914C1128.68 170.431 1132.4 173.171 1136.64 174.751C1138.02 175.348 1139.61 175.682 1141.26 175.715C1142.2 175.715 1143.13 175.526 1144.07 175.449C1145.52 175.324 1146.91 175.352 1147.89 176.148C1148.17 176.372 1148.13 177.253 1147.73 177.253Z" fill="white" fill-opacity="0.25"/>
<path d="M160.446 62.6851C160.322 62.9228 -8.38378 62.6851 -6.25536 62.6851C-5.27941 62.6851 -7.72968 61.7066 -6.77449 61.392C-1.28214 59.5537 4.72933 59.5048 10.7097 59.1343C14.2413 59.0327 17.7089 58.4651 20.9157 57.4638C24.0927 56.3454 26.1069 54.3953 28.3392 52.571C31.818 49.7987 36.2892 47.6692 41.3305 46.3838C46.3718 45.0984 51.8166 44.6995 57.1506 45.2248C69.1424 46.4899 78.6009 52.6409 90.6135 53.7732C97.8293 54.4722 104.661 52.571 111.711 51.907C117.525 51.3688 122.363 52.1306 127.554 53.8641C131.365 55.1292 134.884 56.1987 139.183 56.4014C142.484 56.5551 145.797 56.3035 149.109 56.2825C154.53 56.3491 159.728 57.746 163.727 60.2108C164.257 60.5603 165.928 62.6851 160.446 62.6851Z" fill="white" fill-opacity="0.25"/>
<path d="M581.863 19.5344C575.27 19.5344 410.697 18.7585 364.214 18.7585C360.964 18.7585 365.076 14.9701 366.862 14.7115C372.582 13.8657 378.542 13.8238 384.346 13.4184C390.06 13.052 395.66 12.1095 400.958 10.6225C405.536 9.32238 410.094 7.82658 415.047 7.30235C424.63 6.28884 433.029 9.78371 442.041 11.3214C444.768 11.8536 447.63 11.9954 450.442 11.7378C453.255 11.4802 455.957 10.8288 458.373 9.82565C462.526 8.14812 466.295 6.13506 470.635 4.65324C478.947 1.90041 488.014 0.332404 497.269 0.0473575C506.523 -0.237689 515.765 0.766362 524.416 2.99668C528.541 4.06171 532.484 5.42081 536.18 7.05073C540.561 8.98689 544.34 11.4612 548.742 13.3764C558.492 17.6262 570.546 16.2422 581.177 18.6746C581.769 18.7935 582.423 19.5344 581.863 19.5344Z" fill="white" fill-opacity="0.25"/>
<path d="M594.862 525.534C588.269 525.534 423.696 524.759 377.213 524.759C373.963 524.759 378.075 520.97 379.861 520.711C385.581 519.866 391.541 519.824 397.345 519.418C403.059 519.052 408.659 518.11 413.957 516.622C418.535 515.322 423.093 513.827 428.046 513.302C437.629 512.289 446.028 515.784 455.04 517.321C457.767 517.854 460.629 517.995 463.441 517.738C466.254 517.48 468.956 516.829 471.372 515.826C475.525 514.148 479.294 512.135 483.634 510.653C491.946 507.9 501.014 506.332 510.268 506.047C519.522 505.762 528.764 506.766 537.415 508.997C541.54 510.062 545.483 511.421 549.179 513.051C553.56 514.987 557.339 517.461 561.741 519.376C571.491 523.626 583.545 522.242 594.176 524.675C594.768 524.793 595.422 525.534 594.862 525.534Z" fill="white" fill-opacity="0.42"/>
<path d="M1412.73 19.8677C1406.37 19.8677 1299.25 20.343 1292.52 20.1962C1292.04 20.1962 1291.78 19.7069 1292.25 19.5462C1296.5 18.1482 1301.32 18.4138 1305.75 17.4492C1308.34 16.8621 1309.9 15.7228 1311.73 14.4087C1313.23 13.268 1315.15 12.4224 1317.31 11.9623C1319.28 11.5623 1321.37 11.5165 1323.38 11.8295C1325.55 12.179 1327.44 13.0178 1329.52 13.549C1334.66 14.8561 1339.66 13.6119 1343.34 11.0467C1346.37 8.94975 1349.34 6.9437 1353.46 5.80438C1355.14 5.29124 1356.96 5.01767 1358.81 5.00083C1360.66 4.98399 1362.49 5.22423 1364.19 5.70651C1368.12 6.90175 1370.82 9.31321 1374.5 10.7601C1378.88 12.4865 1384.12 12.0741 1388.95 12.5984C1393.77 13.1226 1397.49 15.8556 1401.73 17.4353C1403.11 18.0308 1404.71 18.3618 1406.35 18.3929C1407.29 18.3929 1408.23 18.2041 1409.16 18.1273C1410.61 18.0084 1412.01 18.0364 1412.98 18.8262C1413.2 19.0219 1413.16 19.8677 1412.73 19.8677Z" fill="white" fill-opacity="0.25"/>
</svg>
