<svg width="382" height="509" viewBox="0 0 382 509" fill="none" xmlns="http://www.w3.org/2000/svg">
<g clip-path="url(#clip0_59_19137)">
<mask id="mask0_59_19137" style="mask-type:luminance" maskUnits="userSpaceOnUse" x="-1" y="0" width="383" height="509">
<path d="M381.748 0H-0.00195312V509H381.748V0Z" fill="white"/>
</mask>
<g mask="url(#mask0_59_19137)">
<mask id="mask1_59_19137" style="mask-type:luminance" maskUnits="userSpaceOnUse" x="-6460" y="-6394" width="12789" height="12788">
<path d="M-6459.04 -6393.84H6328.65V6393.84H-6459.04V-6393.84Z" fill="white"/>
</mask>
<g mask="url(#mask1_59_19137)">
<mask id="mask2_59_19137" style="mask-type:luminance" maskUnits="userSpaceOnUse" x="-5948" y="-6394" width="12789" height="12788">
<path d="M6840.16 -6393.84H-5947.53V6393.84H6840.16V-6393.84Z" fill="white"/>
</mask>
<g mask="url(#mask2_59_19137)">
<g opacity="0.5">
<path d="M212.349 155.002L218.876 156.169L220.409 147.59L213.882 146.424L212.349 155.002Z" fill="#0D0D80"/>
</g>
</g>
<mask id="mask3_59_19137" style="mask-type:luminance" maskUnits="userSpaceOnUse" x="-5948" y="-6394" width="12789" height="12788">
<path d="M6840.16 -6393.84H-5947.53V6393.84H6840.16V-6393.84Z" fill="white"/>
</mask>
<g mask="url(#mask3_59_19137)">
<path d="M326.637 129.012L332.642 131.331L335.851 123.021L329.847 120.702L326.637 129.012Z" fill="#FF9500"/>
</g>
<mask id="mask4_59_19137" style="mask-type:luminance" maskUnits="userSpaceOnUse" x="-5948" y="-6394" width="12789" height="12788">
<path d="M6840.16 -6393.84H-5947.53V6393.84H6840.16V-6393.84Z" fill="white"/>
</mask>
<g mask="url(#mask4_59_19137)">
<g opacity="0.5">
<path d="M290.047 109.923L293.123 109.465L291.779 100.438L288.703 100.896L290.047 109.923Z" fill="#FF9500"/>
</g>
</g>
<mask id="mask5_59_19137" style="mask-type:luminance" maskUnits="userSpaceOnUse" x="-5948" y="-6394" width="12789" height="12788">
<path d="M6840.16 -6393.84H-5947.53V6393.84H6840.16V-6393.84Z" fill="white"/>
</mask>
<g mask="url(#mask5_59_19137)">
<path d="M248.272 131.383L251.535 131.966L253.068 123.388L249.805 122.805L248.272 131.383Z" fill="#2AAC7E"/>
</g>
<mask id="mask6_59_19137" style="mask-type:luminance" maskUnits="userSpaceOnUse" x="-5948" y="-6394" width="12789" height="12788">
<path d="M6840.16 -6393.84H-5947.53V6393.84H6840.16V-6393.84Z" fill="white"/>
</mask>
<g mask="url(#mask6_59_19137)">
<g opacity="0.5">
<path d="M205.778 72.4928C206.984 74.715 209.18 75.8587 210.68 75.045C212.18 74.2313 212.419 71.7664 211.213 69.5441C210.008 67.3219 207.811 66.1783 206.311 66.992C204.811 67.8057 204.573 70.2706 205.778 72.4928Z" fill="#FF3B30"/>
</g>
</g>
<mask id="mask7_59_19137" style="mask-type:luminance" maskUnits="userSpaceOnUse" x="-5948" y="-6394" width="12789" height="12788">
<path d="M6840.16 -6393.84H-5947.53V6393.84H6840.16V-6393.84Z" fill="white"/>
</mask>
<g mask="url(#mask7_59_19137)">
<path d="M314.503 219.47C314.587 217.285 312.993 215.448 310.946 215.369C308.899 215.291 307.169 217.001 307.086 219.185C307.002 221.37 308.596 223.207 310.643 223.286C312.69 223.364 314.42 221.654 314.503 219.47Z" fill="#FF9500"/>
</g>
<mask id="mask8_59_19137" style="mask-type:luminance" maskUnits="userSpaceOnUse" x="-5948" y="-6394" width="12789" height="12788">
<path d="M6840.16 -6393.84H-5947.53V6393.84H6840.16V-6393.84Z" fill="white"/>
</mask>
<g mask="url(#mask8_59_19137)">
<path d="M300.962 106.313C300.893 107.242 300.923 108.18 301.073 109.129C302.594 118.731 316.283 123.417 317.804 133.02C319.295 142.434 307.684 150.867 309.175 160.281C309.651 163.29 311.37 165.79 313.537 168.107" stroke="#FF9500" stroke-width="2.00344" stroke-linecap="round" stroke-linejoin="round"/>
</g>
<mask id="mask9_59_19137" style="mask-type:luminance" maskUnits="userSpaceOnUse" x="-5948" y="-6394" width="12789" height="12788">
<path d="M6840.16 -6393.84H-5947.53V6393.84H6840.16V-6393.84Z" fill="white"/>
</mask>
<g mask="url(#mask9_59_19137)">
<path d="M275.929 79.3641C272.968 83.6259 270.025 87.89 270.278 92.7184C270.777 102.237 283.888 108.071 284.387 117.589C284.721 123.966 279.252 129.29 275.757 134.972" stroke="#2AAC7E" stroke-width="1.82929" stroke-linecap="round" stroke-linejoin="round"/>
</g>
<mask id="mask10_59_19137" style="mask-type:luminance" maskUnits="userSpaceOnUse" x="-5948" y="-6394" width="12789" height="12788">
<path d="M6840.16 -6393.84H-5947.53V6393.84H6840.16V-6393.84Z" fill="white"/>
</mask>
<g mask="url(#mask10_59_19137)">
<g opacity="0.5">
<path d="M247.223 117.386L239.225 113.242L236.309 118.87L244.307 123.014L247.223 117.386Z" fill="#2AAC7E"/>
</g>
</g>
<mask id="mask11_59_19137" style="mask-type:luminance" maskUnits="userSpaceOnUse" x="-5948" y="-6394" width="12789" height="12788">
<path d="M6840.16 -6393.84H-5947.53V6393.84H6840.16V-6393.84Z" fill="white"/>
</mask>
<g mask="url(#mask11_59_19137)">
<path d="M361.498 118.972L352.596 119.802L353.19 126.179L362.092 125.349L361.498 118.972Z" fill="#2AAC7E"/>
</g>
<mask id="mask12_59_19137" style="mask-type:luminance" maskUnits="userSpaceOnUse" x="-5948" y="-6394" width="12789" height="12788">
<path d="M6840.16 -6393.84H-5947.53V6393.84H6840.16V-6393.84Z" fill="white"/>
</mask>
<g mask="url(#mask12_59_19137)">
<g opacity="0.5">
<path d="M322.947 101.523L318.434 100.851L317.518 107.003L322.031 107.675L322.947 101.523Z" fill="#0D0D80"/>
</g>
</g>
<mask id="mask13_59_19137" style="mask-type:luminance" maskUnits="userSpaceOnUse" x="-5948" y="-6394" width="12789" height="12788">
<path d="M6840.16 -6393.84H-5947.53V6393.84H6840.16V-6393.84Z" fill="white"/>
</mask>
<g mask="url(#mask13_59_19137)">
<path d="M272.308 126.935L274.274 130.824L280.192 127.832L278.226 123.943L272.308 126.935Z" fill="#FF9500"/>
</g>
<mask id="mask14_59_19137" style="mask-type:luminance" maskUnits="userSpaceOnUse" x="-5948" y="-6394" width="12789" height="12788">
<path d="M6840.16 -6393.84H-5947.53V6393.84H6840.16V-6393.84Z" fill="white"/>
</mask>
<g mask="url(#mask14_59_19137)">
<g opacity="0.5">
<path d="M167.225 95.1312C166.428 93.5405 163.999 93.1422 161.804 94.2423C159.609 95.3424 158.474 97.5271 159.271 99.1178C160.068 100.709 162.498 101.107 164.693 100.007C166.888 98.9066 168.023 96.7219 167.225 95.1312Z" fill="#0D0D80"/>
</g>
</g>
<mask id="mask15_59_19137" style="mask-type:luminance" maskUnits="userSpaceOnUse" x="-5948" y="-6394" width="12789" height="12788">
<path d="M6840.16 -6393.84H-5947.53V6393.84H6840.16V-6393.84Z" fill="white"/>
</mask>
<g mask="url(#mask15_59_19137)">
<path d="M326.437 156.455C327.2 154.73 326.077 152.557 323.931 151.607C321.784 150.657 319.421 151.286 318.657 153.011C317.893 154.737 319.016 156.909 321.163 157.859C323.31 158.81 325.673 158.18 326.437 156.455Z" fill="#FF9500"/>
</g>
<mask id="mask16_59_19137" style="mask-type:luminance" maskUnits="userSpaceOnUse" x="-5948" y="-6394" width="12789" height="12788">
<path d="M6840.16 -6393.84H-5947.53V6393.84H6840.16V-6393.84Z" fill="white"/>
</mask>
<g mask="url(#mask16_59_19137)">
<path d="M306.88 79.4013C310.416 84.4181 314.799 89.2614 314.652 95.0306C314.41 104.559 301.461 110.744 301.218 120.272C301.07 126.09 305.716 130.904 309.302 135.94" stroke="#2AAC7E" stroke-width="1.85821" stroke-linecap="round" stroke-linejoin="round"/>
</g>
<mask id="mask17_59_19137" style="mask-type:luminance" maskUnits="userSpaceOnUse" x="-5948" y="-6394" width="12789" height="12788">
<path d="M6840.16 -6393.84H-5947.53V6393.84H6840.16V-6393.84Z" fill="white"/>
</mask>
<g mask="url(#mask17_59_19137)">
<path d="M312.904 39.5114C313.244 48.2006 304.351 57.051 306.51 65.7086C308.815 74.9568 322.799 78.1825 325.105 87.4307C326.08 91.3416 324.706 95.2815 322.969 99.226" stroke="#0D0D80" stroke-width="1.9446" stroke-linecap="round" stroke-linejoin="round"/>
</g>
</g>
<mask id="mask18_59_19137" style="mask-type:luminance" maskUnits="userSpaceOnUse" x="-6460" y="-6394" width="12789" height="12788">
<path d="M-6459.04 -6393.84H6328.65V6393.84H-6459.04V-6393.84Z" fill="white"/>
</mask>
<g mask="url(#mask18_59_19137)">
<mask id="mask19_59_19137" style="mask-type:luminance" maskUnits="userSpaceOnUse" x="-6460" y="-6394" width="12789" height="12788">
<path d="M-6459.04 -6393.84H6328.65V6393.84H-6459.04V-6393.84Z" fill="white"/>
</mask>
<g mask="url(#mask19_59_19137)">
<g opacity="0.5">
<path d="M168.769 155.002L162.242 156.169L160.709 147.59L167.236 146.424L168.769 155.002Z" fill="#0D0D80"/>
</g>
</g>
<mask id="mask20_59_19137" style="mask-type:luminance" maskUnits="userSpaceOnUse" x="-6460" y="-6394" width="12789" height="12788">
<path d="M-6459.04 -6393.84H6328.65V6393.84H-6459.04V-6393.84Z" fill="white"/>
</mask>
<g mask="url(#mask20_59_19137)">
<path d="M54.4762 129.012L48.4717 131.331L45.2622 123.021L51.2666 120.702L54.4762 129.012Z" fill="#FF9500"/>
</g>
<mask id="mask21_59_19137" style="mask-type:luminance" maskUnits="userSpaceOnUse" x="-6460" y="-6394" width="12789" height="12788">
<path d="M-6459.04 -6393.84H6328.65V6393.84H-6459.04V-6393.84Z" fill="white"/>
</mask>
<g mask="url(#mask21_59_19137)">
<g opacity="0.5">
<path d="M91.0661 109.923L87.9905 109.465L89.3346 100.438L92.4102 100.896L91.0661 109.923Z" fill="#FF9500"/>
</g>
</g>
<mask id="mask22_59_19137" style="mask-type:luminance" maskUnits="userSpaceOnUse" x="-6460" y="-6394" width="12789" height="12788">
<path d="M-6459.04 -6393.84H6328.65V6393.84H-6459.04V-6393.84Z" fill="white"/>
</mask>
<g mask="url(#mask22_59_19137)">
<path d="M132.846 131.383L129.582 131.966L128.049 123.388L131.312 122.805L132.846 131.383Z" fill="#2AAC7E"/>
</g>
<mask id="mask23_59_19137" style="mask-type:luminance" maskUnits="userSpaceOnUse" x="-6460" y="-6394" width="12789" height="12788">
<path d="M-6459.04 -6393.84H6328.65V6393.84H-6459.04V-6393.84Z" fill="white"/>
</mask>
<g mask="url(#mask23_59_19137)">
<g opacity="0.5">
<path d="M175.343 72.4923C174.137 74.7145 171.941 75.8582 170.441 75.0445C168.941 74.2308 168.702 71.7659 169.908 69.5437C171.113 67.3214 173.31 66.1778 174.81 66.9915C176.31 67.8052 176.548 70.2701 175.343 72.4923Z" fill="#FF3B30"/>
</g>
</g>
<mask id="mask24_59_19137" style="mask-type:luminance" maskUnits="userSpaceOnUse" x="-6460" y="-6394" width="12789" height="12788">
<path d="M-6459.04 -6393.84H6328.65V6393.84H-6459.04V-6393.84Z" fill="white"/>
</mask>
<g mask="url(#mask24_59_19137)">
<path d="M66.6149 219.47C66.5311 217.285 68.1251 215.448 70.172 215.369C72.2189 215.291 73.9488 217.001 74.0325 219.185C74.1163 221.37 72.5223 223.207 70.4754 223.286C68.4285 223.364 66.6986 221.654 66.6149 219.47Z" fill="#FF9500"/>
</g>
<mask id="mask25_59_19137" style="mask-type:luminance" maskUnits="userSpaceOnUse" x="-6460" y="-6394" width="12789" height="12788">
<path d="M-6459.04 -6393.84H6328.65V6393.84H-6459.04V-6393.84Z" fill="white"/>
</mask>
<g mask="url(#mask25_59_19137)">
<path d="M80.1592 106.313C80.2277 107.242 80.1983 108.18 80.048 109.129C78.5271 118.731 64.8378 123.417 63.3169 133.02C61.8259 142.434 73.4373 150.867 71.9463 160.281C71.4697 163.29 69.7512 165.79 67.584 168.107" stroke="#FF9500" stroke-width="2.00344" stroke-linecap="round" stroke-linejoin="round"/>
</g>
<mask id="mask26_59_19137" style="mask-type:luminance" maskUnits="userSpaceOnUse" x="-6460" y="-6394" width="12789" height="12788">
<path d="M-6459.04 -6393.84H6328.65V6393.84H-6459.04V-6393.84Z" fill="white"/>
</mask>
<g mask="url(#mask26_59_19137)">
<path d="M105.192 79.3632C108.153 83.625 111.096 87.889 110.843 92.7174C110.344 102.236 97.2331 108.07 96.7342 117.588C96.4001 123.965 101.869 129.289 105.364 134.971" stroke="#2AAC7E" stroke-width="1.82929" stroke-linecap="round" stroke-linejoin="round"/>
</g>
<mask id="mask27_59_19137" style="mask-type:luminance" maskUnits="userSpaceOnUse" x="-6460" y="-6394" width="12789" height="12788">
<path d="M-6459.04 -6393.84H6328.65V6393.84H-6459.04V-6393.84Z" fill="white"/>
</mask>
<g mask="url(#mask27_59_19137)">
<g opacity="0.5">
<path d="M133.891 117.388L141.888 113.244L144.804 118.871L136.807 123.015L133.891 117.388Z" fill="#2AAC7E"/>
</g>
</g>
<mask id="mask28_59_19137" style="mask-type:luminance" maskUnits="userSpaceOnUse" x="-6460" y="-6394" width="12789" height="12788">
<path d="M-6459.04 -6393.84H6328.65V6393.84H-6459.04V-6393.84Z" fill="white"/>
</mask>
<g mask="url(#mask28_59_19137)">
<path d="M19.6236 118.972L28.5256 119.802L27.9313 126.179L19.0293 125.349L19.6236 118.972Z" fill="#2AAC7E"/>
</g>
<mask id="mask29_59_19137" style="mask-type:luminance" maskUnits="userSpaceOnUse" x="-6460" y="-6394" width="12789" height="12788">
<path d="M-6459.04 -6393.84H6328.65V6393.84H-6459.04V-6393.84Z" fill="white"/>
</mask>
<g mask="url(#mask29_59_19137)">
<g opacity="0.5">
<path d="M58.172 101.523L62.6853 100.851L63.6013 107.002L59.0879 107.674L58.172 101.523Z" fill="#0D0D80"/>
</g>
</g>
<mask id="mask30_59_19137" style="mask-type:luminance" maskUnits="userSpaceOnUse" x="-6460" y="-6394" width="12789" height="12788">
<path d="M-6459.04 -6393.84H6328.65V6393.84H-6459.04V-6393.84Z" fill="white"/>
</mask>
<g mask="url(#mask30_59_19137)">
<path d="M108.813 126.935L106.847 130.824L100.93 127.832L102.896 123.943L108.813 126.935Z" fill="#FF9500"/>
</g>
<mask id="mask31_59_19137" style="mask-type:luminance" maskUnits="userSpaceOnUse" x="-6460" y="-6394" width="12789" height="12788">
<path d="M-6459.04 -6393.84H6328.65V6393.84H-6459.04V-6393.84Z" fill="white"/>
</mask>
<g mask="url(#mask31_59_19137)">
<g opacity="0.5">
<path d="M213.896 95.1303C214.693 93.5396 217.122 93.1412 219.317 94.2414C221.512 95.3415 222.647 97.5262 221.85 99.1169C221.053 100.708 218.623 101.106 216.428 100.006C214.233 98.9057 213.098 96.7209 213.896 95.1303Z" fill="#0D0D80"/>
</g>
</g>
<mask id="mask32_59_19137" style="mask-type:luminance" maskUnits="userSpaceOnUse" x="-6460" y="-6394" width="12789" height="12788">
<path d="M-6459.04 -6393.84H6328.65V6393.84H-6459.04V-6393.84Z" fill="white"/>
</mask>
<g mask="url(#mask32_59_19137)">
<path d="M54.6826 156.455C53.9188 154.73 55.0417 152.557 57.1885 151.607C59.3353 150.657 61.6984 151.286 62.4621 153.011C63.2259 154.737 62.103 156.909 59.9562 157.859C57.8094 158.81 55.4463 158.18 54.6826 156.455Z" fill="#FF9500"/>
</g>
<mask id="mask33_59_19137" style="mask-type:luminance" maskUnits="userSpaceOnUse" x="-6460" y="-6394" width="12789" height="12788">
<path d="M-6459.04 -6393.84H6328.65V6393.84H-6459.04V-6393.84Z" fill="white"/>
</mask>
<g mask="url(#mask33_59_19137)">
<path d="M74.241 79.4013C70.7051 84.4181 66.3218 89.2614 66.4687 95.0306C66.7112 104.559 79.6605 110.744 79.903 120.272C80.051 126.09 75.4048 130.904 71.8189 135.94" stroke="#2AAC7E" stroke-width="1.85821" stroke-linecap="round" stroke-linejoin="round"/>
</g>
<mask id="mask34_59_19137" style="mask-type:luminance" maskUnits="userSpaceOnUse" x="-6460" y="-6394" width="12789" height="12788">
<path d="M-6459.04 -6393.84H6328.65V6393.84H-6459.04V-6393.84Z" fill="white"/>
</mask>
<g mask="url(#mask34_59_19137)">
<path d="M68.2093 39.5114C67.8688 48.2006 76.7623 57.051 74.6037 65.7086C72.2979 74.9568 58.3145 78.1825 56.0087 87.4307C55.0335 91.3416 56.4077 95.2815 58.1443 99.226" stroke="#0D0D80" stroke-width="1.9446" stroke-linecap="round" stroke-linejoin="round"/>
</g>
</g>
<mask id="mask35_59_19137" style="mask-type:luminance" maskUnits="userSpaceOnUse" x="-6236" y="-6211" width="12538" height="12538">
<path d="M-6235.25 -6210.8H6301.7V6326.14H-6235.25V-6210.8Z" fill="white"/>
</mask>
<g mask="url(#mask35_59_19137)">
<mask id="mask36_59_19137" style="mask-type:luminance" maskUnits="userSpaceOnUse" x="-6324" y="-6261" width="12538" height="12537">
<path d="M-6323.01 -6260.95H6213.94V6276H-6323.01V-6260.95Z" fill="white"/>
</mask>
<g mask="url(#mask36_59_19137)">
<g opacity="0.5">
<path d="M251.381 193.863L254.995 203.219L246.528 206.489L242.914 197.133L251.381 193.863Z" fill="#0D0D80"/>
</g>
</g>
<mask id="mask37_59_19137" style="mask-type:luminance" maskUnits="userSpaceOnUse" x="-6324" y="-6261" width="12538" height="12537">
<path d="M-6323.01 -6260.95H6213.94V6276H-6323.01V-6260.95Z" fill="white"/>
</mask>
<g mask="url(#mask37_59_19137)">
<path d="M224.631 278.489L215.187 275.111L217.963 267.354L227.406 270.732L224.631 278.489Z" fill="#FF9500"/>
</g>
<mask id="mask38_59_19137" style="mask-type:luminance" maskUnits="userSpaceOnUse" x="-6324" y="-6261" width="12538" height="12537">
<path d="M-6323.01 -6260.95H6213.94V6276H-6323.01V-6260.95Z" fill="white"/>
</mask>
<g mask="url(#mask38_59_19137)">
<g opacity="0.5">
<path d="M138.167 227.946L140.063 232.588L131.709 236L129.812 231.358L138.167 227.946Z" fill="#FF9500"/>
</g>
</g>
<mask id="mask39_59_19137" style="mask-type:luminance" maskUnits="userSpaceOnUse" x="-6324" y="-6261" width="12538" height="12537">
<path d="M-6323.01 -6260.95H6213.94V6276H-6323.01V-6260.95Z" fill="white"/>
</mask>
<g mask="url(#mask39_59_19137)">
<path d="M195.386 197.373L191.527 196.087L194.699 186.572L198.558 187.858L195.386 197.373Z" fill="#2AAC7E"/>
</g>
<mask id="mask40_59_19137" style="mask-type:luminance" maskUnits="userSpaceOnUse" x="-6324" y="-6261" width="12538" height="12537">
<path d="M-6323.01 -6260.95H6213.94V6276H-6323.01V-6260.95Z" fill="white"/>
</mask>
<g mask="url(#mask40_59_19137)">
<g opacity="0.5">
<path d="M90.7435 255.79C92.4883 254.3 95.3645 254.798 97.1621 256.902C98.9598 259.007 99.0027 261.925 97.2579 263.416C95.5131 264.906 92.6369 264.408 90.8392 262.304C89.0416 260.199 88.9987 257.281 90.7435 255.79Z" fill="#FF3B30"/>
</g>
</g>
<mask id="mask41_59_19137" style="mask-type:luminance" maskUnits="userSpaceOnUse" x="-6324" y="-6261" width="12538" height="12537">
<path d="M-6323.01 -6260.95H6213.94V6276H-6323.01V-6260.95Z" fill="white"/>
</mask>
<g mask="url(#mask41_59_19137)">
<path d="M100.986 175.875C103.138 174.664 105.987 175.64 107.344 178.051C108.702 180.463 108.057 183.405 105.905 184.616C103.753 185.826 100.905 184.851 99.5472 182.439C98.1899 180.027 98.8348 177.086 100.986 175.875Z" fill="#FF9500"/>
</g>
<mask id="mask42_59_19137" style="mask-type:luminance" maskUnits="userSpaceOnUse" x="-6324" y="-6261" width="12538" height="12537">
<path d="M-6323.01 -6260.95H6213.94V6276H-6323.01V-6260.95Z" fill="white"/>
</mask>
<g mask="url(#mask42_59_19137)">
<path d="M277.752 190.854C277.021 188.96 276.176 187.099 275.294 185.33" stroke="#FF9500" stroke-width="0.464259" stroke-linecap="round" stroke-linejoin="round"/>
</g>
<mask id="mask43_59_19137" style="mask-type:luminance" maskUnits="userSpaceOnUse" x="-6324" y="-6261" width="12538" height="12537">
<path d="M-6323.01 -6260.95H6213.94V6276H-6323.01V-6260.95Z" fill="white"/>
</mask>
<g mask="url(#mask43_59_19137)">
<g opacity="0.5">
<path d="M156.435 147.784L165.284 148.592L164.372 158.58L155.523 157.772L156.435 147.784Z" fill="#0D0D80"/>
</g>
</g>
<mask id="mask44_59_19137" style="mask-type:luminance" maskUnits="userSpaceOnUse" x="-6324" y="-6261" width="12538" height="12537">
<path d="M-6323.01 -6260.95H6213.94V6276H-6323.01V-6260.95Z" fill="white"/>
</mask>
<g mask="url(#mask44_59_19137)">
<path d="M143.389 120.375L137.462 127.531L129.738 121.134L135.665 113.978L143.389 120.375Z" fill="#2AAC7E"/>
</g>
<mask id="mask45_59_19137" style="mask-type:luminance" maskUnits="userSpaceOnUse" x="-6324" y="-6261" width="12538" height="12537">
<path d="M-6323.01 -6260.95H6213.94V6276H-6323.01V-6260.95Z" fill="white"/>
</mask>
<g mask="url(#mask45_59_19137)">
<g opacity="0.5">
<path d="M178.884 173.149L183.272 173.62L182.202 183.592L177.814 183.121L178.884 173.149Z" fill="#0D0D80"/>
</g>
</g>
<mask id="mask46_59_19137" style="mask-type:luminance" maskUnits="userSpaceOnUse" x="-6324" y="-6261" width="12538" height="12537">
<path d="M-6323.01 -6260.95H6213.94V6276H-6323.01V-6260.95Z" fill="white"/>
</mask>
<g mask="url(#mask46_59_19137)">
<path d="M215.805 199.259L219.555 201.952L213.705 210.099L209.955 207.406L215.805 199.259Z" fill="#FF9500"/>
</g>
<mask id="mask47_59_19137" style="mask-type:luminance" maskUnits="userSpaceOnUse" x="-6324" y="-6261" width="12538" height="12537">
<path d="M-6323.01 -6260.95H6213.94V6276H-6323.01V-6260.95Z" fill="white"/>
</mask>
<g mask="url(#mask47_59_19137)">
<g opacity="0.5">
<path d="M151.113 293.113C151.04 290.346 152.694 288.054 154.804 287.999C156.914 287.943 158.686 290.144 158.759 292.911C158.832 295.678 157.178 297.969 155.068 298.025C152.958 298.081 151.186 295.879 151.113 293.113Z" fill="#0D0D80"/>
</g>
</g>
<mask id="mask48_59_19137" style="mask-type:luminance" maskUnits="userSpaceOnUse" x="-6324" y="-6261" width="12538" height="12537">
<path d="M-6323.01 -6260.95H6213.94V6276H-6323.01V-6260.95Z" fill="white"/>
</mask>
<g mask="url(#mask48_59_19137)">
<path d="M178.245 214.917C179.09 212.282 181.608 210.729 183.864 211.452C186.12 212.175 187.266 214.902 186.422 217.538C185.577 220.173 183.059 221.726 180.803 221.003C178.547 220.28 177.401 217.553 178.245 214.917Z" fill="#FF9500"/>
</g>
</g>
<mask id="mask49_59_19137" style="mask-type:luminance" maskUnits="userSpaceOnUse" x="-6221" y="-6211" width="12538" height="12538">
<path d="M-6220.83 -6210.8H6316.11V6326.14H-6220.83V-6210.8Z" fill="white"/>
</mask>
<g mask="url(#mask49_59_19137)">
<mask id="mask50_59_19137" style="mask-type:luminance" maskUnits="userSpaceOnUse" x="-5834" y="-6261" width="12538" height="12537">
<path d="M6703.5 -6260.95H-5833.44V6276H6703.5V-6260.95Z" fill="white"/>
</mask>
<g mask="url(#mask50_59_19137)">
<g opacity="0.5">
<path d="M129.111 193.862L125.497 203.218L133.964 206.489L137.578 197.133L129.111 193.862Z" fill="#0D0D80"/>
</g>
</g>
<mask id="mask51_59_19137" style="mask-type:luminance" maskUnits="userSpaceOnUse" x="-5834" y="-6261" width="12538" height="12537">
<path d="M6703.5 -6260.95H-5833.44V6276H6703.5V-6260.95Z" fill="white"/>
</mask>
<g mask="url(#mask51_59_19137)">
<path d="M155.859 278.489L165.303 275.111L162.527 267.354L153.084 270.732L155.859 278.489Z" fill="#FF9500"/>
</g>
<mask id="mask52_59_19137" style="mask-type:luminance" maskUnits="userSpaceOnUse" x="-5834" y="-6261" width="12538" height="12537">
<path d="M6703.5 -6260.95H-5833.44V6276H6703.5V-6260.95Z" fill="white"/>
</mask>
<g mask="url(#mask52_59_19137)">
<g opacity="0.5">
<path d="M242.327 227.946L240.431 232.588L248.786 236L250.682 231.358L242.327 227.946Z" fill="#FF9500"/>
</g>
</g>
<mask id="mask53_59_19137" style="mask-type:luminance" maskUnits="userSpaceOnUse" x="-5834" y="-6261" width="12538" height="12537">
<path d="M6703.5 -6260.95H-5833.44V6276H6703.5V-6260.95Z" fill="white"/>
</mask>
<g mask="url(#mask53_59_19137)">
<path d="M185.108 197.374L188.967 196.088L185.795 186.573L181.937 187.859L185.108 197.374Z" fill="#2AAC7E"/>
</g>
<mask id="mask54_59_19137" style="mask-type:luminance" maskUnits="userSpaceOnUse" x="-5834" y="-6261" width="12538" height="12537">
<path d="M6703.5 -6260.95H-5833.44V6276H6703.5V-6260.95Z" fill="white"/>
</mask>
<g mask="url(#mask54_59_19137)">
<g opacity="0.5">
<path d="M289.751 255.79C288.006 254.3 285.13 254.798 283.332 256.902C281.534 259.007 281.491 261.925 283.236 263.416C284.981 264.906 287.857 264.408 289.655 262.304C291.453 260.199 291.495 257.281 289.751 255.79Z" fill="#FF3B30"/>
</g>
</g>
<mask id="mask55_59_19137" style="mask-type:luminance" maskUnits="userSpaceOnUse" x="-5834" y="-6261" width="12538" height="12537">
<path d="M6703.5 -6260.95H-5833.44V6276H6703.5V-6260.95Z" fill="white"/>
</mask>
<g mask="url(#mask55_59_19137)">
<path d="M279.508 175.875C277.356 174.664 274.507 175.639 273.15 178.051C271.793 180.463 272.437 183.404 274.589 184.615C276.741 185.826 279.59 184.851 280.947 182.439C282.304 180.027 281.659 177.085 279.508 175.875Z" fill="#FF9500"/>
</g>
<mask id="mask56_59_19137" style="mask-type:luminance" maskUnits="userSpaceOnUse" x="-5834" y="-6261" width="12538" height="12537">
<path d="M6703.5 -6260.95H-5833.44V6276H6703.5V-6260.95Z" fill="white"/>
</mask>
<g mask="url(#mask56_59_19137)">
<path d="M102.737 190.854C103.468 188.96 104.313 187.099 105.195 185.33" stroke="#FF9500" stroke-width="0.464259" stroke-linecap="round" stroke-linejoin="round"/>
</g>
<mask id="mask57_59_19137" style="mask-type:luminance" maskUnits="userSpaceOnUse" x="-5834" y="-6261" width="12538" height="12537">
<path d="M6703.5 -6260.95H-5833.44V6276H6703.5V-6260.95Z" fill="white"/>
</mask>
<g mask="url(#mask57_59_19137)">
<g opacity="0.5">
<path d="M224.069 147.784L215.22 148.592L216.132 158.58L224.98 157.772L224.069 147.784Z" fill="#0D0D80"/>
</g>
</g>
<mask id="mask58_59_19137" style="mask-type:luminance" maskUnits="userSpaceOnUse" x="-5834" y="-6261" width="12538" height="12537">
<path d="M6703.5 -6260.95H-5833.44V6276H6703.5V-6260.95Z" fill="white"/>
</mask>
<g mask="url(#mask58_59_19137)">
<path d="M237.108 120.375L243.035 127.531L250.759 121.134L244.832 113.978L237.108 120.375Z" fill="#2AAC7E"/>
</g>
<mask id="mask59_59_19137" style="mask-type:luminance" maskUnits="userSpaceOnUse" x="-5834" y="-6261" width="12538" height="12537">
<path d="M6703.5 -6260.95H-5833.44V6276H6703.5V-6260.95Z" fill="white"/>
</mask>
<g mask="url(#mask59_59_19137)">
<g opacity="0.5">
<path d="M201.608 173.149L197.221 173.62L198.29 183.592L202.678 183.121L201.608 173.149Z" fill="#0D0D80"/>
</g>
</g>
<mask id="mask60_59_19137" style="mask-type:luminance" maskUnits="userSpaceOnUse" x="-5834" y="-6261" width="12538" height="12537">
<path d="M6703.5 -6260.95H-5833.44V6276H6703.5V-6260.95Z" fill="white"/>
</mask>
<g mask="url(#mask60_59_19137)">
<path d="M164.687 199.261L160.937 201.954L166.787 210.101L170.537 207.407L164.687 199.261Z" fill="#FF9500"/>
</g>
<mask id="mask61_59_19137" style="mask-type:luminance" maskUnits="userSpaceOnUse" x="-5834" y="-6261" width="12538" height="12537">
<path d="M6703.5 -6260.95H-5833.44V6276H6703.5V-6260.95Z" fill="white"/>
</mask>
<g mask="url(#mask61_59_19137)">
<g opacity="0.5">
<path d="M229.385 293.113C229.458 290.346 227.804 288.055 225.694 287.999C223.584 287.944 221.812 290.145 221.739 292.912C221.666 295.678 223.32 297.97 225.43 298.025C227.54 298.081 229.312 295.88 229.385 293.113Z" fill="#0D0D80"/>
</g>
</g>
<mask id="mask62_59_19137" style="mask-type:luminance" maskUnits="userSpaceOnUse" x="-5834" y="-6261" width="12538" height="12537">
<path d="M6703.5 -6260.95H-5833.44V6276H6703.5V-6260.95Z" fill="white"/>
</mask>
<g mask="url(#mask62_59_19137)">
<path d="M202.247 214.917C201.402 212.282 198.884 210.729 196.628 211.452C194.372 212.175 193.226 214.902 194.071 217.538C194.915 220.173 197.433 221.726 199.689 221.003C201.945 220.28 203.092 217.553 202.247 214.917Z" fill="#FF9500"/>
</g>
</g>
</g>
</g>
<defs>
<clipPath id="clip0_59_19137">
<rect width="381.75" height="509" fill="white"/>
</clipPath>
</defs>
</svg>
