<svg width="148" height="138" viewBox="0 0 148 138" fill="none" xmlns="http://www.w3.org/2000/svg">
<g clip-path="url(#clip0_42_7701)">
<path d="M123.966 46H11.0345C4.94034 46 0 49.3667 0 53.5198V130.48C0 134.633 4.94034 138 11.0345 138H123.966C130.06 138 135 134.633 135 130.48V53.5198C135 49.3667 130.06 46 123.966 46Z" fill="#EBEBEB"/>
<path d="M145.209 61.698C146.395 54.2972 141.358 47.3356 133.957 46.1489C126.556 44.9622 119.595 49.9997 118.408 57.4005C117.221 64.8013 122.259 71.7628 129.66 72.9496C137.06 74.1363 144.022 69.0988 145.209 61.698Z" fill="#90CAF9"/>
<path d="M130.607 64.9973C130.32 64.9993 130.04 64.9044 129.812 64.7279L125.04 61.0336C124.772 60.8244 124.597 60.5169 124.555 60.1789C124.513 59.8409 124.607 59.5001 124.816 59.2313C125.025 58.9626 125.332 58.7879 125.67 58.7458C126.008 58.7037 126.349 58.7976 126.618 59.0068L130.466 62.0085L136.88 54.5813C137.101 54.3228 137.416 54.1627 137.755 54.1362C137.923 54.1231 138.092 54.1432 138.252 54.1954C138.412 54.2475 138.561 54.3307 138.689 54.4402C138.817 54.5497 138.922 54.6834 138.998 54.8335C139.075 54.9837 139.121 55.1474 139.134 55.3154C139.147 55.4833 139.127 55.6522 139.075 55.8124C139.023 55.9726 138.939 56.1209 138.83 56.2489L131.659 64.5996C131.526 64.7415 131.361 64.851 131.179 64.9199C130.997 64.9888 130.801 65.0152 130.607 64.9973Z" fill="white"/>
<path d="M115.414 88.011C115.414 88.0774 95.6245 88.4331 71.2116 88.7983C46.7988 89.1634 27 89.4053 27 89.3389C27 89.2725 46.7893 88.9168 71.2069 88.5516C95.6245 88.1864 115.414 87.9446 115.414 88.011Z" fill="#263238"/>
<path d="M115.48 92.8865C115.48 92.9576 95.686 93.3086 71.2779 93.6737C46.8697 94.0389 27.0757 94.2808 27.0757 94.2144C27.0757 94.148 46.8603 93.7923 71.2826 93.4271C95.7049 93.0619 115.48 92.8201 115.48 92.8865Z" fill="#263238"/>
<path d="M115.56 97.7666C115.56 97.833 95.7709 98.1887 71.3581 98.5539C46.9453 98.9191 27.1465 99.1609 27.1465 99.0945C27.1465 99.0281 46.9358 98.6724 71.3534 98.3073C95.7709 97.9421 115.56 97.7002 115.56 97.7666Z" fill="#263238"/>
<path d="M66.6541 103.377C66.6541 103.448 57.8279 103.633 46.9404 103.799C36.053 103.965 27.222 104.037 27.2173 103.97C27.2126 103.904 36.0435 103.714 46.9357 103.553C57.8279 103.392 66.6494 103.311 66.6541 103.377Z" fill="#263238"/>
<path d="M115.707 107.522C115.707 107.589 95.9127 107.945 71.5046 108.31C47.0965 108.675 27.293 108.917 27.293 108.85C27.293 108.784 47.0776 108.428 71.4999 108.063C95.9221 107.698 115.707 107.451 115.707 107.522Z" fill="#263238"/>
<path d="M115.778 112.398C115.778 112.469 95.9887 112.82 71.5759 113.185C47.163 113.55 27.3643 113.792 27.3643 113.726C27.3643 113.659 47.1536 113.304 71.5711 112.939C95.9887 112.573 115.778 112.332 115.778 112.398Z" fill="#263238"/>
<path d="M98.2906 117.539C98.2906 117.61 82.4299 117.904 62.8675 118.193C43.305 118.483 27.4395 118.668 27.4112 118.606C27.3828 118.544 43.2719 118.241 62.8391 117.947C82.4062 117.653 98.2906 117.472 98.2906 117.539Z" fill="#263238"/>
<path d="M115.925 122.154C115.925 122.225 96.1352 122.576 71.7224 122.941C47.3095 123.306 27.5107 123.548 27.5107 123.482C27.5107 123.415 47.3001 123.059 71.7176 122.694C96.1352 122.329 115.925 122.087 115.925 122.154Z" fill="#263238"/>
<path d="M116 127.034C116 127.1 96.206 127.451 71.7932 127.821C47.3803 128.191 27.5815 128.428 27.5815 128.362C27.5815 128.295 47.3709 127.94 71.7884 127.574C96.206 127.209 115.995 126.963 116 127.034Z" fill="#263238"/>
</g>
<defs>
<clipPath id="clip0_42_7701">
<rect width="147.358" height="138" fill="white"/>
</clipPath>
</defs>
</svg>
