<svg width="234" height="170" viewBox="0 0 234 170" fill="none" xmlns="http://www.w3.org/2000/svg">
<g clip-path="url(#clip0_42_7691)">
<path d="M23.548 29H211.274C213.079 29 214.809 29.7167 216.085 30.9925C217.361 32.2682 218.077 33.9985 218.077 35.8027V159.683H16.772V35.8027C16.772 34.0032 17.485 32.2769 18.755 31.0019C20.025 29.7269 21.7484 29.0071 23.548 29Z" fill="#B8B8B8" stroke="#263238" stroke-opacity="0.21" stroke-linecap="round" stroke-linejoin="round"/>
<path d="M187.054 153.371H48.6924V160.19H187.054V153.371Z" fill="#263238" stroke="#263238" stroke-linecap="round" stroke-linejoin="round"/>
<path d="M187.054 156.655H48.6924V160.19H187.054V156.655Z" fill="white" stroke="#263238" stroke-linecap="round" stroke-linejoin="round"/>
<path d="M0.464355 164.232C0.464355 164.232 2.73905 167.009 9.54178 169.278H226.188C226.188 169.278 231.239 168.018 233.509 164.472L0.464355 164.232Z" fill="#263238" stroke="#263238" stroke-linecap="round" stroke-linejoin="round"/>
<path d="M231.939 159.256H2.06111C0.92279 159.256 0 160.178 0 161.317V162.502C0 163.64 0.92279 164.563 2.06111 164.563H231.939C233.077 164.563 234 163.64 234 162.502V161.317C234 160.178 233.077 159.256 231.939 159.256Z" fill="#B8B8B8" stroke="#6C6B6B" stroke-linecap="round" stroke-linejoin="round"/>
<path d="M119.133 32.9354C119.133 32.5858 119.029 32.2441 118.835 31.9535C118.641 31.6628 118.365 31.4363 118.042 31.3025C117.719 31.1687 117.364 31.1337 117.021 31.2019C116.678 31.2701 116.363 31.4385 116.116 31.6856C115.869 31.9328 115.7 32.2477 115.632 32.5906C115.564 32.9334 115.599 33.2888 115.733 33.6118C115.866 33.9347 116.093 34.2108 116.384 34.405C116.674 34.5992 117.016 34.7028 117.366 34.7028C117.834 34.7028 118.284 34.5166 118.615 34.1852C118.947 33.8537 119.133 33.4041 119.133 32.9354Z" fill="#263238"/>
<path d="M18.6459 65.7582C18.5796 65.7589 18.5137 65.7465 18.4522 65.7216C18.3907 65.6967 18.3347 65.6598 18.2876 65.6131C18.2404 65.5665 18.2029 65.5109 18.1774 65.4496C18.1518 65.3884 18.1387 65.3227 18.1387 65.2563V50.6096C18.1387 50.5433 18.1518 50.4776 18.1774 50.4163C18.2029 50.3551 18.2404 50.2995 18.2876 50.2528C18.3347 50.2061 18.3907 50.1693 18.4522 50.1444C18.5137 50.1195 18.5796 50.107 18.6459 50.1077C18.7791 50.1077 18.9067 50.1606 19.0009 50.2547C19.095 50.3488 19.1479 50.4765 19.1479 50.6096V65.2563C19.1479 65.3894 19.095 65.5171 19.0009 65.6112C18.9067 65.7054 18.7791 65.7582 18.6459 65.7582Z" fill="#263238" stroke="white" stroke-width="0.691688" stroke-linejoin="round"/>
<path d="M209.908 39.1934H24.915V143.739H209.908V39.1934Z" fill="white" stroke="#878787" stroke-linecap="round" stroke-linejoin="round"/>
</g>
<defs>
<clipPath id="clip0_42_7691">
<rect width="234" height="169.278" fill="white"/>
</clipPath>
</defs>
</svg>
