<svg width="410" height="398" viewBox="0 0 410 398" fill="none" xmlns="http://www.w3.org/2000/svg">
<g filter="url(#filter0_d_42_7716)">
<path d="M221.398 321.442C214.666 309.784 209.779 296.26 211.216 282.689L255.508 276.32C265.306 278.891 274.84 283.902 281.191 292.188C287.544 300.473 290.166 312.383 286.113 322.148C291.501 323.34 296.783 325.585 300.935 329.406C305.085 333.225 308.004 338.749 308.091 344.56C308.141 347.794 307.085 351.359 304.412 352.937C301.335 354.754 297.532 353.295 294.232 351.987C276.934 345.135 258.228 343.179 240.666 337.117C236.175 335.565 231.667 333.686 228.095 330.422C225.354 327.919 223.284 324.707 221.398 321.442Z" fill="#FF9998"/>
<path d="M149.107 335.435C155.839 323.778 160.726 310.253 159.289 296.682L114.997 290.313C105.199 292.885 95.6645 297.895 89.3135 306.181C82.9608 314.466 80.3387 326.377 84.3918 336.142C79.0043 337.333 73.722 339.579 69.5694 343.399C65.4198 347.219 62.5013 352.742 62.4134 358.554C62.3637 361.788 63.4199 365.352 66.0931 366.931C69.1698 368.747 72.9732 367.288 76.2725 365.981C93.5711 359.128 112.277 357.173 129.839 351.11C134.33 349.558 138.838 347.68 142.41 344.415C145.15 341.912 147.221 338.701 149.107 335.435Z" fill="#FF9998"/>
<path d="M304.908 263.775C282.443 323.807 263.662 322.272 240.751 333.702C217.84 345.132 148.711 351.18 123.703 340.783C88.7437 326.248 84.5312 307.678 71.6333 263.775C60.7361 226.682 52.7664 202.696 58.4421 163.753C66.0315 111.679 87.1366 81.785 123.703 56.6496C124.863 55.8523 126.02 55.0766 127.175 54.3225L140.366 0C146.846 12.3921 159.805 37.4557 159.805 38.5732C185.73 30.683 210.994 34.4086 237.564 49.6583L245.201 15.9327C252.375 29.505 267.417 59.7107 270.194 71.955C289.125 86.6342 312.26 142.509 315.732 169.064C319.203 195.618 322.42 216.977 304.908 263.775Z" fill="#FF9998"/>
<path d="M260.556 246.769C258.363 268.265 269.404 305.352 246.079 327.051C228.633 343.281 211.163 341.259 187.512 344.16C163.514 347.104 145.486 355.362 125.656 341.528C102.581 325.431 98.237 289.323 105.256 272.433C112.275 255.543 109.656 228.804 129.604 214.524C140.838 206.483 149.65 204.229 163.165 201.364C188.053 196.087 206.771 189.799 228.312 203.338C244.605 213.578 262.75 225.273 260.556 246.769Z" fill="#FFCF87"/>
<path d="M157.36 117.994C160.86 120.494 163.36 123.494 163.86 127.994C164.333 132.255 154.36 133.494 154.36 133.494L149.86 121.494C149.86 121.494 155.96 116.994 157.36 117.994Z" fill="white"/>
<path d="M155.244 128.515C152.784 126.201 153.33 121.609 156.483 118.256C156.647 118.083 156.811 117.919 156.984 117.764C155.581 116.971 154.041 116.525 152.419 116.525C145.868 116.525 140.556 123.75 140.556 132.651C140.556 141.553 145.868 148.778 152.419 148.778C158.97 148.778 164.282 141.553 164.282 132.651C164.282 131.057 164.109 129.508 163.79 128.05C160.838 130.173 157.312 130.455 155.244 128.515Z" fill="url(#paint0_linear_42_7716)"/>
<path d="M247.375 117.849C250.875 120.349 253.375 123.349 253.875 127.849C254.349 132.11 244.375 133.349 244.375 133.349L239.875 121.349C239.875 121.349 245.975 116.849 247.375 117.849Z" fill="white"/>
<path d="M245.475 128.515C243.015 126.201 243.562 121.609 246.714 118.256C246.878 118.083 247.042 117.919 247.215 117.764C245.812 116.971 244.272 116.525 242.651 116.525C236.1 116.525 230.788 123.75 230.788 132.651C230.788 141.553 236.1 148.778 242.651 148.778C249.201 148.778 254.513 141.553 254.513 132.651C254.513 131.057 254.34 129.508 254.021 128.05C251.078 130.173 247.543 130.455 245.475 128.515Z" fill="url(#paint1_linear_42_7716)"/>
<path d="M404.711 83.3442L354.774 136.67L355.43 137.356L405.367 84.0298L404.711 83.3442Z" fill="#263238"/>
<g filter="url(#filter1_d_42_7716)">
<path d="M200.276 181.076C199.913 181.834 198.835 181.834 198.472 181.076L180.683 143.922C180.365 143.258 180.849 142.49 181.585 142.49H217.163C217.898 142.49 218.382 143.258 218.065 143.922L200.276 181.076Z" fill="#FF3D00"/>
</g>
<path d="M302.326 154.29C314.427 159.046 328.538 155.27 338.767 146.948C348.996 138.625 355.759 126.336 360.239 113.547C364.518 125.132 362.937 138.93 356.167 149.105C359.427 146.1 362.27 142.59 364.577 138.723C365.672 146.225 362.841 153.789 359.042 160.231C347.114 180.464 324.606 187.249 301.71 170.179" fill="#FF9998"/>
<path d="M68.9202 164.333C65.6199 177.516 54.5602 187.512 42.2227 191.535C29.8852 195.559 16.4778 194.306 3.99989 190.794C10.4939 201.167 22.0796 207.762 33.8555 207.79C29.6506 208.869 25.2964 209.297 20.9742 209.057C26.1459 214.329 33.6298 216.249 40.8045 216.688C63.3361 218.067 81.5669 202.563 81.5669 172.967" fill="#FF9998"/>
<path d="M196.497 91.8751C201.775 79.4311 199.121 64.3161 191.92 52.9981C184.718 41.68 173.543 33.7569 161.748 28.2068C172.973 24.4485 185.909 27.008 195.086 34.8016C192.457 31.1715 189.325 27.9488 185.82 25.2671C192.98 24.5989 199.944 28.0725 205.786 32.4926C224.133 46.3736 229.086 70.5325 211.472 93.5535" fill="#FF9998"/>
<path d="M233.179 181.71C218.262 177.179 209.334 157.865 213.149 136.908C214.775 126.882 219.5 117.617 226.661 110.413C229.632 107.251 233.322 104.853 237.418 103.424C241.514 101.994 245.895 101.574 250.188 102.2C258.348 103.657 265.131 109.327 269.37 118.097C273.57 127.335 274.765 137.658 272.788 147.611C268.813 169.708 252.201 185.286 235.696 182.319C234.845 182.169 234.004 181.965 233.179 181.71ZM251.221 108.055C250.573 107.844 249.908 107.684 249.234 107.578C245.786 107.11 242.277 107.479 239.002 108.655C235.728 109.831 232.785 111.779 230.423 114.335C224.097 120.745 219.929 128.969 218.501 137.862C215.056 157.017 223.19 174.556 236.729 176.994C250.267 179.431 263.991 165.813 267.436 146.684C269.213 137.854 268.176 128.69 264.468 120.481C263.25 117.6 261.441 115.006 259.16 112.866C256.878 110.726 254.174 109.088 251.221 108.055Z" fill="#455A64"/>
<path d="M142.91 167.792C127.994 163.261 119.066 143.947 122.881 122.99C124.507 112.964 129.232 103.699 136.393 96.4954C139.364 93.3334 143.054 90.9355 147.15 89.5056C151.246 88.0756 155.627 87.6559 159.92 88.2822C168.08 89.7394 174.863 95.4091 179.102 104.179C183.302 113.417 184.497 123.74 182.52 133.693C178.545 155.79 161.933 171.368 145.427 168.401C144.577 168.251 143.736 168.047 142.91 167.792ZM160.953 94.1374C160.305 93.9256 159.64 93.7661 158.966 93.6605C155.518 93.1919 152.009 93.5613 148.734 94.7374C145.46 95.9134 142.517 97.8615 140.155 100.417C133.829 106.827 129.661 115.051 128.233 123.944C124.788 143.099 132.922 160.638 146.461 163.076C159.999 165.513 173.723 151.895 177.168 132.766C178.945 123.937 177.908 114.772 174.2 106.563C172.981 103.682 171.173 101.088 168.892 98.9484C166.61 96.8084 163.906 95.1696 160.953 94.1374Z" fill="#455A64"/>
<path d="M181.718 134.283L178 130.412C187.598 127.157 208.148 123.54 219 133.511L213.237 136C203.639 127.054 182.583 133.975 181.718 134.283Z" fill="#455A64"/>
<path d="M72.1746 113.15L70 110.487C70.7778 108.783 77.8095 93.8415 84.0318 94.0013C89.8413 94.2143 125.492 110.86 127 111.579L126.27 116C116.048 111.206 88.4762 98.7419 83.9841 98.6354C79.873 98.369 74.0794 109.049 72.1746 113.15Z" fill="#455A64"/>
<path d="M309.398 137.198L311 134.579C310.427 132.903 305.892 125.846 301.308 126.003C297.027 126.212 270.111 134.946 269 135.653L269.538 140C277.07 135.286 298.033 130.664 301.343 130.559C304.372 130.298 307.994 133.165 309.398 137.198Z" fill="#455A64"/>
</g>
<defs>
<filter id="filter0_d_42_7716" x="0" y="0" width="409.367" height="375.783" filterUnits="userSpaceOnUse" color-interpolation-filters="sRGB">
<feFlood flood-opacity="0" result="BackgroundImageFix"/>
<feColorMatrix in="SourceAlpha" type="matrix" values="0 0 0 0 0 0 0 0 0 0 0 0 0 0 0 0 0 0 127 0" result="hardAlpha"/>
<feOffset dy="4"/>
<feGaussianBlur stdDeviation="2"/>
<feComposite in2="hardAlpha" operator="out"/>
<feColorMatrix type="matrix" values="0 0 0 0 0 0 0 0 0 0 0 0 0 0 0 0 0 0 0.25 0"/>
<feBlend mode="normal" in2="BackgroundImageFix" result="effect1_dropShadow_42_7716"/>
<feBlend mode="normal" in="SourceGraphic" in2="effect1_dropShadow_42_7716" result="shape"/>
</filter>
<filter id="filter1_d_42_7716" x="176.584" y="142.49" width="45.5796" height="47.1543" filterUnits="userSpaceOnUse" color-interpolation-filters="sRGB">
<feFlood flood-opacity="0" result="BackgroundImageFix"/>
<feColorMatrix in="SourceAlpha" type="matrix" values="0 0 0 0 0 0 0 0 0 0 0 0 0 0 0 0 0 0 127 0" result="hardAlpha"/>
<feOffset dy="4"/>
<feGaussianBlur stdDeviation="2"/>
<feComposite in2="hardAlpha" operator="out"/>
<feColorMatrix type="matrix" values="0 0 0 0 0 0 0 0 0 0 0 0 0 0 0 0 0 0 0.25 0"/>
<feBlend mode="normal" in2="BackgroundImageFix" result="effect1_dropShadow_42_7716"/>
<feBlend mode="normal" in="SourceGraphic" in2="effect1_dropShadow_42_7716" result="shape"/>
</filter>
<linearGradient id="paint0_linear_42_7716" x1="152.413" y1="116.521" x2="152.413" y2="148.781" gradientUnits="userSpaceOnUse">
<stop stop-color="#424242"/>
<stop offset="1" stop-color="#212121"/>
</linearGradient>
<linearGradient id="paint1_linear_42_7716" x1="242.65" y1="116.521" x2="242.65" y2="148.781" gradientUnits="userSpaceOnUse">
<stop stop-color="#424242"/>
<stop offset="1" stop-color="#212121"/>
</linearGradient>
</defs>
</svg>
