<svg width="248" height="347" viewBox="0 0 248 347" fill="none" xmlns="http://www.w3.org/2000/svg">
<g clip-path="url(#clip0_42_7736)">
<path d="M92.6451 302.325C97.449 294.007 100.936 284.356 99.9106 274.672L68.305 270.127C61.3134 271.962 54.5101 275.538 49.9782 281.45C45.4451 287.362 43.5741 295.861 46.4662 302.829C42.6218 303.68 38.8525 305.282 35.8894 308.008C32.9284 310.734 30.8458 314.675 30.7831 318.822C30.7476 321.13 31.5012 323.673 33.4088 324.8C35.6042 326.096 38.3182 325.055 40.6725 324.122C53.0163 319.232 66.3641 317.836 78.8958 313.51C82.1005 312.403 85.3173 311.063 87.8665 308.733C89.8218 306.947 91.2991 304.656 92.6451 302.325Z" fill="#7894C6"/>
<path d="M164.03 322.883C154.777 320.302 145.533 315.847 139.49 308.211L158.889 282.849C165.168 279.268 172.53 277.062 179.905 278.115C187.28 279.167 194.564 283.929 197.373 290.931C200.715 288.849 204.529 287.356 208.553 287.23C212.576 287.105 216.821 288.464 219.768 291.382C221.408 293.006 222.649 295.351 222.075 297.49C221.413 299.953 218.746 301.108 216.411 302.089C204.171 307.232 193.659 315.575 181.679 321.253C178.614 322.705 175.379 323.998 171.927 324.117C169.281 324.21 166.622 323.606 164.03 322.883Z" fill="#7894C6"/>
<path d="M33.0547 253.222C49.0851 296.06 62.4869 294.964 78.8354 303.12C95.184 311.276 144.512 315.592 162.357 308.173C187.303 297.801 190.309 284.55 199.513 253.222C207.289 226.754 212.976 209.638 208.926 181.849C203.51 144.691 188.45 123.359 162.357 105.424C161.529 104.855 160.704 104.301 159.88 103.763L150.467 65C145.843 73.8427 136.596 91.7273 136.596 92.5247C118.097 86.8945 100.069 89.553 81.1096 100.435L75.6601 76.3691C70.5408 86.0539 59.8069 107.608 57.8253 116.345C44.3166 126.82 27.8081 166.691 25.3311 185.639C22.8542 204.588 20.5584 219.829 33.0547 253.222Z" fill="#7894C6"/>
<path d="M64.7026 241.087C66.2679 256.426 58.3892 282.89 75.0332 298.374C87.4818 309.955 99.9483 308.513 116.825 310.583C133.949 312.683 146.813 318.576 160.964 308.704C177.429 297.218 180.529 271.452 175.52 259.4C170.511 247.348 172.381 228.268 158.146 218.078C150.13 212.34 143.842 210.731 134.198 208.687C116.439 204.922 103.082 200.435 87.7114 210.096C76.0847 217.403 63.1374 225.748 64.7026 241.087Z" fill="#D1D0FF"/>
<path d="M138.792 159.552C138.604 156.358 140.253 153.388 143.286 152.815C146.32 152.243 149.778 157.479 149.778 157.479L145.284 165.771C145.284 165.771 139.003 163.126 138.792 159.552Z" fill="white"/>
<path d="M144.055 160.112C145.684 158.579 145.322 155.538 143.234 153.317C143.125 153.202 143.017 153.094 142.902 152.991C143.831 152.466 144.851 152.17 145.925 152.17C150.264 152.17 153.783 156.956 153.783 162.852C153.783 168.748 150.264 173.534 145.925 173.534C141.586 173.534 138.068 168.748 138.068 162.852C138.068 161.796 138.183 160.77 138.394 159.804C140.349 161.211 142.685 161.398 144.055 160.112Z" fill="url(#paint0_linear_42_7736)"/>
<path d="M78.792 159.552C78.6035 156.358 80.2525 153.388 83.286 152.815C86.3196 152.243 89.7774 157.479 89.7774 157.479L85.2834 165.771C85.2834 165.771 79.0029 163.126 78.792 159.552Z" fill="white"/>
<path d="M84.2885 160.112C85.9179 158.579 85.5558 155.538 83.4678 153.317C83.3592 153.202 83.2506 153.094 83.1359 152.991C84.0653 152.466 85.0851 152.17 86.1593 152.17C90.4983 152.17 94.0166 156.956 94.0166 162.852C94.0166 168.748 90.4983 173.534 86.1593 173.534C81.8203 173.534 78.302 168.748 78.302 162.852C78.302 161.796 78.4167 160.77 78.6279 159.804C80.5771 161.211 82.9186 161.398 84.2885 160.112Z" fill="url(#paint1_linear_42_7736)"/>
<path d="M20.1904 119.699L1.48187 107.584C1.38974 107.514 1.31522 107.423 1.26341 107.319L0.16711 105.678L2.04123 105.915C2.16195 105.93 2.27689 105.97 2.37876 106.032L21.5246 117.633C21.7189 117.752 21.8557 117.942 21.9068 118.165C21.958 118.388 21.9196 118.626 21.7995 118.831L21.518 119.305C21.4592 119.422 21.3762 119.527 21.2746 119.612C21.173 119.697 21.0552 119.761 20.9292 119.798C20.8032 119.835 20.672 119.846 20.5446 119.829C20.4171 119.811 20.2963 119.767 20.1904 119.699Z" fill="#263238"/>
<path d="M64.8691 147.578C54.0384 149.298 42.9479 143.565 35.8313 134.773C28.7147 125.982 25.1299 114.535 23.5225 103.093C18.0577 111.922 17.0913 123.667 21.0311 133.36C18.8211 130.265 17.0411 126.829 15.7646 123.194C13.6165 129.219 14.7179 136.019 16.8071 142.067C23.3681 161.059 40.9322 170.836 62.7565 160.881" fill="#7894C6"/>
<path d="M201.449 190.196C203.804 199.602 211.696 206.735 220.5 209.606C229.303 212.478 238.871 211.583 247.774 209.077C243.14 216.479 234.873 221.185 226.47 221.205C229.471 221.975 232.578 222.281 235.662 222.109C231.972 225.871 226.631 227.241 221.512 227.554C205.434 228.539 192.425 217.476 192.425 196.356" fill="#7894C6"/>
<path d="M110.897 128.851C107.13 119.971 109.024 109.185 114.163 101.109C119.302 93.033 127.275 87.3793 135.692 83.4189C127.683 80.7371 118.452 82.5635 111.904 88.1248C113.779 85.5344 116.014 83.2348 118.515 81.3212C113.406 80.8444 108.437 83.3231 104.268 86.4772C91.1764 96.3822 87.642 113.621 100.211 130.048" fill="#7894C6"/>
<g filter="url(#filter0_d_42_7736)">
<path d="M116.063 196.621C116.426 197.378 117.504 197.378 117.867 196.621L130.106 171.058C130.424 170.394 129.94 169.626 129.204 169.626H104.726C103.991 169.626 103.507 170.394 103.824 171.058L116.063 196.621Z" fill="#FF9A00"/>
</g>
</g>
<defs>
<filter id="filter0_d_42_7736" x="99.7251" y="169.626" width="34.48" height="35.5625" filterUnits="userSpaceOnUse" color-interpolation-filters="sRGB">
<feFlood flood-opacity="0" result="BackgroundImageFix"/>
<feColorMatrix in="SourceAlpha" type="matrix" values="0 0 0 0 0 0 0 0 0 0 0 0 0 0 0 0 0 0 127 0" result="hardAlpha"/>
<feOffset dy="4"/>
<feGaussianBlur stdDeviation="2"/>
<feComposite in2="hardAlpha" operator="out"/>
<feColorMatrix type="matrix" values="0 0 0 0 0 0 0 0 0 0 0 0 0 0 0 0 0 0 0.25 0"/>
<feBlend mode="normal" in2="BackgroundImageFix" result="effect1_dropShadow_42_7736"/>
<feBlend mode="normal" in="SourceGraphic" in2="effect1_dropShadow_42_7736" result="shape"/>
</filter>
<linearGradient id="paint0_linear_42_7736" x1="145.93" y1="152.168" x2="145.93" y2="173.535" gradientUnits="userSpaceOnUse">
<stop stop-color="#424242"/>
<stop offset="1" stop-color="#212121"/>
</linearGradient>
<linearGradient id="paint1_linear_42_7736" x1="86.1599" y1="152.168" x2="86.1599" y2="173.535" gradientUnits="userSpaceOnUse">
<stop stop-color="#424242"/>
<stop offset="1" stop-color="#212121"/>
</linearGradient>
<clipPath id="clip0_42_7736">
<rect width="247.774" height="346.653" fill="white"/>
</clipPath>
</defs>
</svg>
