<svg width="40" height="40" viewBox="0 0 40 40" fill="none" xmlns="http://www.w3.org/2000/svg">
<g filter="url(#filter0_d_433_2718)">
<rect x="1" width="38" height="38" rx="4" fill="white" shape-rendering="crispEdges"/>
<rect x="1.5" y="0.5" width="37" height="37" rx="3.5" stroke="#878787" stroke-linecap="square" shape-rendering="crispEdges"/>
<path fill-rule="evenodd" clip-rule="evenodd" d="M14.396 12.8066C14.4228 12.5794 14.5023 12.3617 14.6281 12.1707C14.7539 11.9797 14.9226 11.8207 15.1207 11.7064C15.3189 11.5921 15.5409 11.5256 15.7693 11.5123C15.9976 11.4989 16.2259 11.5391 16.436 11.6296C17.498 12.0836 19.878 13.1626 22.898 14.9056C25.919 16.6496 28.044 18.1726 28.967 18.8636C29.755 19.4546 29.757 20.6266 28.968 21.2196C28.054 21.9066 25.955 23.4096 22.898 25.1756C19.838 26.9416 17.486 28.0076 16.434 28.4556C15.528 28.8426 14.514 28.2556 14.396 27.2786C14.258 26.1366 14 23.5436 14 20.0416C14 16.5416 14.257 13.9496 14.396 12.8066Z" fill="#585858"/>
</g>
<defs>
<filter id="filter0_d_433_2718" x="0" y="0" width="40" height="40" filterUnits="userSpaceOnUse" color-interpolation-filters="sRGB">
<feFlood flood-opacity="0" result="BackgroundImageFix"/>
<feColorMatrix in="SourceAlpha" type="matrix" values="0 0 0 0 0 0 0 0 0 0 0 0 0 0 0 0 0 0 127 0" result="hardAlpha"/>
<feOffset dy="1"/>
<feGaussianBlur stdDeviation="0.5"/>
<feComposite in2="hardAlpha" operator="out"/>
<feColorMatrix type="matrix" values="0 0 0 0 0.423529 0 0 0 0 0.419608 0 0 0 0 0.419608 0 0 0 1 0"/>
<feBlend mode="normal" in2="BackgroundImageFix" result="effect1_dropShadow_433_2718"/>
<feBlend mode="normal" in="SourceGraphic" in2="effect1_dropShadow_433_2718" result="shape"/>
</filter>
</defs>
</svg>
