<svg width="109" height="108" viewBox="0 0 109 108" fill="none" xmlns="http://www.w3.org/2000/svg">
<path d="M15.6031 3.375C9.50452 3.375 5.0799 8.35313 3.9729 13.959L3.96952 13.9928L3.96277 14.0231C3.7107 15.411 3.99801 16.8427 4.76602 18.0259C5.52877 19.1869 6.92265 20.25 8.78227 20.25H20.7433L20.5813 91.3545V91.3613C20.5857 94.8866 21.9882 98.2663 24.481 100.759C26.9738 103.252 30.3534 104.654 33.8788 104.659H86.765C87.035 104.659 87.305 104.645 87.5649 104.618C100.491 104.436 103.562 99.3431 104.869 94.2975C105.04 93.548 105.04 92.7692 104.867 92.0198C104.695 91.2705 104.355 90.5699 103.873 89.9708C103.256 89.23 102.481 88.6369 101.605 88.2351C100.729 87.8333 99.7741 87.6329 98.8104 87.6488H94.8313V18.3937C94.8313 14.4195 93.2525 10.608 90.4423 7.79775C87.632 4.98752 83.8205 3.40875 79.8463 3.40875H32.9V3.375H15.6031ZM27.4933 20.25H27.5V16.875C27.4996 14.5311 26.9518 12.2198 25.9003 10.125H26.15V10.1588H79.8463C82.0303 10.1588 84.1249 11.0264 85.6693 12.5707C87.2137 14.1151 88.0813 16.2097 88.0813 18.3937V87.6488H49.1C47.7472 87.589 46.4143 87.9907 45.3197 88.7878C44.2252 89.585 43.4339 90.7304 43.0756 92.0363C42.6679 93.5213 41.8452 94.8593 40.7041 95.8934C39.5629 96.9275 38.1507 97.6149 36.6328 97.875V97.9088H33.8788C32.1442 97.9043 30.4819 97.2135 29.2551 95.9873C28.0283 94.7611 27.3366 93.0992 27.3313 91.3646L27.4933 20.2669V20.25Z" fill="#3DBBEC"/>
<path d="M27.4939 20.25H27.5006V16.875C27.5002 14.5311 26.9524 12.2198 25.9009 10.125H26.1506V10.1587H79.8469C82.0309 10.1587 84.1255 11.0264 85.6699 12.5707C87.2143 14.1151 88.0819 16.2097 88.0819 18.3937V87.6488H49.1006C47.7479 87.589 46.4149 87.9907 45.3203 88.7878C44.2258 89.585 43.4345 90.7304 43.0763 92.0363C42.6685 93.5213 41.8458 94.8593 40.7047 95.8934C39.5635 96.9275 38.1513 97.6149 36.6334 97.875V97.9087H33.8794C32.1448 97.9043 30.4825 97.2135 29.2557 95.9873C28.0289 94.7611 27.3372 93.0992 27.3319 91.3646L27.4939 20.2669V20.25Z" fill="#C2E8FF"/>
<g clip-path="url(#clip0_387_1145)">
<path d="M82.7699 58.3448C82.7699 61.3079 81.5572 64.1496 79.3984 66.2449C77.2397 68.3401 74.3119 69.5172 71.259 69.5172C68.2061 69.5172 65.2782 68.3401 63.1195 66.2449C60.9607 64.1496 59.748 61.3079 59.748 58.3448C59.748 55.3817 60.9607 52.5399 63.1195 50.4447C65.2782 48.3495 68.2061 47.1724 71.259 47.1724C74.3119 47.1724 77.2397 48.3495 79.3984 50.4447C81.5572 52.5399 82.7699 55.3817 82.7699 58.3448Z" fill="#E7A536"/>
<path d="M76.5341 74.6845C75.7427 74.6845 75.2152 74.4284 74.4238 74.1724L71.2583 72.8922L68.0927 74.1724C67.5652 74.4284 66.7738 74.6845 65.9824 74.6845C65.4548 74.6845 65.191 74.6845 64.6634 74.4284L63.3445 84.4138L71.2583 79.2931L79.1721 84.4138L77.5893 74.4284C77.3255 74.6845 76.7979 74.6845 76.5341 74.6845ZM84.1841 58.5543C83.9203 58.0422 83.9203 57.2741 84.1841 56.762L85.7669 53.6896C86.2945 52.6655 85.7669 51.3853 84.4479 50.8732L81.0186 49.5931C80.491 49.337 79.9634 48.825 79.6996 48.3129L78.3807 44.9844C78.1169 43.9603 77.3255 43.4482 76.5341 43.4482C76.2703 43.4482 75.7427 43.4482 75.479 43.7043L72.0496 45.2405H71.2583C70.9945 45.2405 70.7307 45.2405 70.4669 44.9844L67.0376 43.7043C66.7738 43.4482 66.2462 43.4482 65.9824 43.4482C65.191 43.4482 64.3996 43.9603 63.8721 44.7284L62.5531 48.3129C62.5531 48.825 62.0255 49.337 61.4979 49.5931L57.8048 50.8732C56.7496 51.1293 56.2221 52.4094 56.7496 53.6896L58.3324 57.0181C58.5962 57.5301 58.5962 58.2982 58.3324 58.8103L56.7496 61.8827C56.2221 62.9069 56.7496 64.187 58.0686 64.6991L61.4979 65.9793C62.0255 66.2353 62.5531 66.7474 62.8169 67.2595L64.1358 70.5879C64.3996 71.612 65.191 72.1241 65.9824 72.1241C66.2462 72.1241 66.51 72.1241 66.7738 71.8681L70.2031 70.3319C70.4669 70.3319 70.7307 70.0758 70.9945 70.0758C71.2583 70.0758 71.5221 70.0758 71.7858 70.3319L75.2152 71.8681C75.479 72.1241 75.7427 72.1241 76.0065 72.1241C76.7979 72.1241 77.5893 71.612 78.1169 70.8439L79.4358 67.5155C79.6996 67.0034 80.2272 66.4913 80.7548 66.2353L84.1841 64.9551C85.2393 64.4431 86.0307 63.1629 85.5031 62.1388L84.1841 58.5543ZM71.2583 68.0276C65.4548 68.0276 60.7065 63.4189 60.7065 57.7862C60.7065 52.1534 65.4548 47.5448 71.2583 47.5448C77.0617 47.5448 81.81 52.1534 81.81 57.7862C81.81 63.4189 77.0617 68.0276 71.2583 68.0276Z" fill="#EBBC48"/>
<path d="M76.5344 74.6843C75.743 74.6843 75.2154 74.4283 74.424 74.1723L71.2585 72.8921L68.093 74.1723C67.5654 74.4283 66.774 74.6843 65.9827 74.6843C65.4551 74.6843 65.1913 74.6843 64.6637 74.4283L63.3447 84.4136L71.2585 79.293L79.1723 84.4136L77.5896 74.4283C77.3258 74.6843 76.7982 74.6843 76.5344 74.6843Z" fill="#E7A536"/>
<path d="M79.1724 57.7863C79.1724 59.8234 78.3386 61.7771 76.8545 63.2176C75.3704 64.658 73.3574 65.4673 71.2586 65.4673C69.1597 65.4673 67.1468 64.658 65.6627 63.2176C64.1786 61.7771 63.3448 59.8234 63.3448 57.7863C63.3448 55.7491 64.1786 53.7954 65.6627 52.3549C67.1468 50.9145 69.1597 50.1052 71.2586 50.1052C73.3574 50.1052 75.3704 50.9145 76.8545 52.3549C78.3386 53.7954 79.1724 55.7491 79.1724 57.7863Z" fill="#F9E17D"/>
<path d="M71.2582 60.5557L74.0495 61.9845C74.5607 62.2463 75.1862 61.8592 75.0517 61.3697L74.3118 58.6829L76.7803 56.8727C77.2309 56.5426 76.9888 55.9164 76.3969 55.8765L73.1482 55.6432L71.877 53.1044C71.6483 52.6433 70.8681 52.6433 70.6394 53.1044L69.3681 55.6375L66.1194 55.8709C65.5275 55.9107 65.2854 56.5369 65.7361 56.867L68.2045 58.6772L67.4647 61.364C67.3301 61.8535 67.9557 62.2406 68.4668 61.9788L71.2582 60.5557Z" fill="#E7A536"/>
</g>
<path d="M33.874 19.5278H71.8356M33.874 35.7971H67.7971M33.874 52.0663H51.1817M33.874 68.6817H49.7971" stroke="#00A1E0" stroke-width="2.5" stroke-linecap="round"/>
<defs>
<clipPath id="clip0_387_1145">
<rect width="42.2069" height="40.9655" fill="white" transform="translate(50.1552 43.4482)"/>
</clipPath>
</defs>
</svg>
