<svg width="120" height="122" viewBox="0 0 120 122" fill="none" xmlns="http://www.w3.org/2000/svg">
<path d="M36.8747 106.651C37.7916 107.616 38.702 108.575 39.559 109.793V112.069H51.5782V109.793C51.3631 108.023 50.9847 104.834 50.9508 103.947C50.9055 102.7 49.2174 100.426 49.2174 100.426L44.0349 93.9484C44.0349 93.9484 42.5682 92.4123 41.729 90.7095C40.8882 89.0051 39.103 91.1488 38.8669 92.6817C38.6276 94.2146 39.0803 95.0227 39.0803 95.0227L42.0395 100.856C42.0395 100.856 38.6082 96.1948 37.5426 94.322C37.0025 93.3728 36.8521 91.3621 36.6823 89.1157C36.519 86.927 36.3379 84.5139 35.7639 82.6379C34.5996 78.8378 31.233 79.7886 30.6493 81.4882C30.0671 83.1863 30.1981 94.4086 30.41 96.2798C30.5765 97.7453 31.4675 99.1788 32.4716 100.795C32.7498 101.244 33.0376 101.706 33.3206 102.185C34.446 104.096 35.6652 105.381 36.8747 106.651ZM79.1174 109.793C79.9745 108.575 80.8848 107.616 81.8017 106.651C83.0112 105.381 84.2304 104.096 85.3575 102.185C85.6388 101.704 85.9267 101.244 86.2048 100.797C87.2089 99.1804 88.0999 97.7453 88.2665 96.2798C88.4783 94.4086 88.6109 83.1863 88.0271 81.4882C87.4434 79.7886 84.0768 78.8378 82.9126 82.6395C82.3401 84.5155 82.159 86.927 81.9941 89.1157C81.8243 91.3621 81.6739 93.3728 81.1338 94.322C80.0682 96.1964 76.6353 100.856 76.6353 100.856L79.5961 95.0227C79.5961 95.0227 80.0488 94.2146 79.8111 92.6817C79.5734 91.1488 77.7883 89.0051 76.949 90.7095C76.1082 92.4123 74.6416 93.9484 74.6416 93.9484L69.4591 100.426C69.4591 100.426 67.7709 102.7 67.7256 103.947C67.6933 104.834 67.3133 108.023 67.0982 109.793V112.069H79.1174V109.793ZM62.5706 120.086C62.5706 120.511 62.741 120.919 63.0442 121.22C63.3475 121.52 63.7588 121.689 64.1876 121.689H77.1237C77.5525 121.689 77.9638 121.52 78.2671 121.22C78.5703 120.919 78.7407 120.511 78.7407 120.086V116.879C78.7407 116.454 78.5703 116.046 78.2671 115.745C77.9638 115.444 77.5525 115.275 77.1237 115.275H64.1876C63.7588 115.275 63.3475 115.444 63.0442 115.745C62.741 116.046 62.5706 116.454 62.5706 116.879V120.086ZM56.1058 120.086C56.1058 120.511 55.9354 120.919 55.6322 121.22C55.329 121.52 54.9177 121.689 54.4888 121.689H41.5527C41.1239 121.689 40.7126 121.52 40.4094 121.22C40.1061 120.919 39.9357 120.511 39.9357 120.086V116.879C39.9357 116.454 40.1061 116.046 40.4094 115.745C40.7126 115.444 41.1239 115.275 41.5527 115.275H54.4888C54.9177 115.275 55.329 115.444 55.6322 115.745C55.9354 116.046 56.1058 116.454 56.1058 116.879V120.086Z" fill="#00A1E0"/>
<path d="M41.3232 34.5257C41.6253 34.5257 41.9623 34.5718 42.3342 34.664C42.706 34.7562 43.0779 34.8829 43.4498 35.0442C43.8216 35.2056 44.1935 35.3554 44.5654 35.4936C44.9372 35.6319 45.2742 35.7702 45.5764 35.9085L45.0186 35.9776C44.8326 36.0007 44.6351 36.0122 44.4259 36.0122C44.0308 36.0122 43.6706 35.9546 43.3452 35.8393C43.0198 35.7241 42.7177 35.5743 42.4388 35.3899C42.1599 35.2056 41.881 35.0673 41.6021 34.9751C41.3232 34.8829 41.0675 34.8138 40.8351 34.7677C40.6027 34.7677 40.3935 34.8138 40.2076 34.906C40.0216 34.9982 39.8357 35.1019 39.6498 35.2171C39.6498 35.1249 39.5684 35.0788 39.4057 35.0788C39.5684 34.9175 39.8706 34.7907 40.3122 34.6986C40.7537 34.6064 41.0907 34.5488 41.3232 34.5257ZM46.0296 36.0813C46.9825 36.0813 47.8541 36.2427 48.6443 36.5653C48.3189 36.6805 47.9935 36.7727 47.6681 36.8419C47.3427 36.911 47.0057 36.9571 46.6571 36.9801C46.1923 36.9801 45.7739 36.934 45.4021 36.8419C45.5183 36.6575 45.6345 36.5423 45.7507 36.4962C45.8669 36.4501 45.9599 36.3118 46.0296 36.0813ZM59.7305 4.00089C63.0076 4.00089 66.1568 4.42724 69.1782 5.27996C72.1996 6.13267 75.0351 7.31955 77.6847 8.84061C80.3342 10.3617 82.7513 12.2169 84.936 14.4063C87.1207 16.5957 88.9801 18.981 90.514 21.5622C92.048 24.1433 93.2565 26.955 94.1397 29.9971C95.0229 33.0392 95.4529 36.1735 95.4296 39.4C95.4296 42.6495 94.9997 45.7723 94.1397 48.7683C93.2798 51.7643 92.0828 54.576 90.5489 57.2033C89.0149 59.8305 87.144 62.2274 84.936 64.3937C82.7281 66.5601 80.3226 68.4038 77.7195 69.9248C75.1165 71.4459 72.281 72.6443 69.2131 73.52C66.1452 74.3958 62.9843 74.8222 59.7305 74.7991C56.4534 74.7991 53.3042 74.3728 50.2828 73.52C47.2614 72.6673 44.4259 71.4804 41.7764 69.9594C39.1268 68.4383 36.7097 66.5831 34.525 64.3937C32.3403 62.2043 30.481 59.819 28.947 57.2378C27.4131 54.6566 26.2045 51.845 25.3213 48.8029C24.4381 45.7608 24.0082 42.6265 24.0314 39.4C24.0314 36.1505 24.4614 33.0277 25.3213 30.0317C26.1813 27.0357 27.3782 24.224 28.9121 21.5967C30.4461 18.9695 32.317 16.5726 34.525 14.4063C36.7329 12.2399 39.1385 10.3962 41.7415 8.87518C44.3446 7.35412 47.18 6.15572 50.2479 5.27996C53.3158 4.4042 56.4767 3.97784 59.7305 4.00089Z" fill="#00A1E0"/>
<path d="M41.3232 34.5257C41.6253 34.5257 41.9623 34.5718 42.3342 34.664C42.706 34.7562 43.0779 34.8829 43.4498 35.0443C43.8216 35.2056 44.1935 35.3554 44.5654 35.4937C44.9372 35.6319 45.2742 35.7702 45.5764 35.9085L45.0186 35.9776C44.8326 36.0007 44.6351 36.0122 44.4259 36.0122C44.0308 36.0122 43.6706 35.9546 43.3452 35.8393C43.0198 35.7241 42.7177 35.5743 42.4388 35.3899C42.1599 35.2056 41.881 35.0673 41.6021 34.9751C41.3232 34.8829 41.0675 34.8138 40.8351 34.7677C40.6027 34.7677 40.3935 34.8138 40.2076 34.906C40.0216 34.9982 39.8357 35.1019 39.6498 35.2171C39.6498 35.1249 39.5684 35.0788 39.4057 35.0788C39.5684 34.9175 39.8706 34.7907 40.3122 34.6986C40.7537 34.6064 41.0908 34.5488 41.3232 34.5257ZM46.0296 36.0813C46.9825 36.0813 47.8541 36.2427 48.6443 36.5653C48.3189 36.6805 47.9935 36.7727 47.6681 36.8419C47.3427 36.911 47.0057 36.9571 46.6571 36.9801C46.1923 36.9801 45.7739 36.934 45.4021 36.8419C45.5183 36.6575 45.6345 36.5423 45.7507 36.4962C45.8669 36.4501 45.9599 36.3118 46.0296 36.0813ZM59.7305 4.00089C63.0076 4.00089 66.1568 4.42724 69.1782 5.27996C72.1996 6.13267 75.0351 7.31955 77.6847 8.84061C80.3342 10.3617 82.7513 12.2169 84.936 14.4063C87.1208 16.5957 88.9801 18.981 90.514 21.5622C92.048 24.1434 93.2565 26.955 94.1397 29.9971C95.0229 33.0392 95.4529 36.1735 95.4296 39.4C95.4296 42.6495 94.9997 45.7723 94.1397 48.7683C93.2798 51.7643 92.0828 54.576 90.5489 57.2033C89.0149 59.8305 87.144 62.2274 84.936 64.3937C82.7281 66.5601 80.3226 68.4038 77.7195 69.9248C75.1165 71.4459 72.281 72.6443 69.2131 73.5201C66.1452 74.3958 62.9843 74.8222 59.7305 74.7991C56.4535 74.7991 53.3042 74.3728 50.2828 73.5201C47.2614 72.6673 44.4259 71.4805 41.7764 69.9594C39.1268 68.4383 36.7097 66.5831 34.525 64.3937C32.3403 62.2043 30.481 59.819 28.947 57.2378C27.4131 54.6567 26.2045 51.845 25.3213 48.8029C24.4381 45.7608 24.0082 42.6265 24.0314 39.4C24.0314 36.1505 24.4614 33.0277 25.3213 30.0317C26.1813 27.0357 27.3782 24.224 28.9121 21.5967C30.4461 18.9695 32.317 16.5726 34.525 14.4063C36.7329 12.2399 39.1385 10.3962 41.7415 8.87518C44.3446 7.35412 47.1801 6.15572 50.2479 5.27996C53.3158 4.4042 56.4767 3.97784 59.7305 4.00089ZM86.2957 23.1869C85.9703 22.6799 85.6449 22.1959 85.3195 21.735C84.9941 21.2741 84.6571 20.8016 84.3085 20.3177C84.262 20.5251 84.2039 20.6749 84.1342 20.7671C84.0645 20.8593 84.018 21.0667 83.9948 21.3893C83.9948 21.5967 84.0761 21.7926 84.2388 21.977C84.4015 22.1614 84.6107 22.3457 84.8663 22.5301C85.122 22.7145 85.3776 22.8528 85.6333 22.9449C85.889 23.0371 86.1097 23.1178 86.2957 23.1869ZM83.8902 19.7991C83.8902 19.9835 83.8553 20.1102 83.7856 20.1794H83.9948C84.0877 20.1794 84.1575 20.1909 84.2039 20.214L83.8902 19.7991ZM59.7305 70.3742C62.3801 70.3742 64.9715 70.0401 67.5048 69.3717C70.0382 68.7034 72.4321 67.7585 74.6865 66.537C76.9409 65.3156 79.0327 63.8176 80.9617 62.043C82.8908 60.2684 84.5758 58.2864 86.0168 56.097C85.7146 55.4057 85.4241 54.7027 85.1452 53.9883C84.8663 53.2739 84.7269 52.5364 84.7269 51.7759C84.7269 50.9462 84.7617 50.2779 84.8315 49.7708C84.9012 49.2638 84.9825 48.8144 85.0755 48.4226C85.1685 48.0308 85.2149 47.6967 85.2149 47.4201C85.2149 47.1436 85.1801 46.7863 85.1104 46.3485C85.0406 45.9106 84.8431 45.4381 84.5177 44.9311C84.1923 44.4241 83.7623 43.7097 83.2278 42.7878C83.251 42.6265 83.2859 42.4075 83.3324 42.131C83.3789 41.8544 83.4253 41.5664 83.4718 41.2668C83.5183 40.9672 83.5299 40.6906 83.5067 40.4371C83.4834 40.1836 83.4253 39.9646 83.3324 39.7803C82.7281 39.7111 82.1006 39.5844 81.4498 39.4C80.799 39.2156 80.218 38.9391 79.7067 38.5703L79.9159 38.3975C79.6137 38.4666 79.3116 38.5588 79.0094 38.674C78.7073 38.7893 78.4168 38.916 78.1379 39.0543C77.859 39.1926 77.5568 39.2848 77.2314 39.3309C76.9061 39.377 76.5923 39.423 76.2902 39.4691L75.7324 39.4L75.837 39.158C75.5116 39.2502 75.1629 39.3654 74.7911 39.5037C74.4192 39.642 74.059 39.7111 73.7103 39.7111C73.4779 39.7111 73.1409 39.6305 72.6993 39.4691C72.2577 39.3078 71.8162 39.1119 71.3746 38.8815C70.933 38.651 70.5379 38.3975 70.1892 38.1209C69.8406 37.8444 69.6663 37.5793 69.6663 37.3258L69.736 37.2221C69.6198 37.0838 69.4688 36.9571 69.2828 36.8419C69.0969 36.7266 68.9226 36.6114 68.7599 36.4962C68.5972 36.3809 68.4461 36.2542 68.3067 36.1159C68.1672 35.9776 68.1091 35.8163 68.1324 35.6319L68.5158 35.3208L67.714 35.2171L67.4351 34.18C67.4816 34.2952 67.5862 34.3413 67.7489 34.3183C67.9116 34.2952 68.0394 34.2492 68.1324 34.18L66.8773 33.5232L67.7489 31.3108C67.4235 30.1123 67.3421 29.1905 67.5048 28.5452C67.6675 27.8999 67.9813 27.3698 68.4461 26.955C68.911 26.5402 69.4223 26.1253 69.9801 25.7105C70.5379 25.2957 71.1073 24.731 71.6883 24.0166L71.5837 23.6018L73.8847 20.8362L74.4076 20.7671C75.0584 20.7671 75.7905 20.744 76.6039 20.6979C77.4174 20.6518 78.2425 20.5712 79.0792 20.4559C79.9159 20.3407 80.7409 20.2255 81.5544 20.1102C82.3678 19.995 83.1116 19.8452 83.7856 19.6608C83.0419 18.7851 82.2633 17.9554 81.4498 17.1718C80.6363 16.3883 79.7648 15.6393 78.8351 14.9248C78.5795 15.017 78.2657 15.1438 77.8938 15.3051C77.522 15.4664 77.1501 15.6738 76.7782 15.9273C76.4064 16.1809 76.1159 16.4574 75.9067 16.757C75.6975 17.0566 75.5697 17.3677 75.5232 17.6904L75.7324 18.3472C75.314 19.0156 74.8492 19.4304 74.3379 19.5917C73.8266 19.753 73.3036 19.8452 72.7691 19.8683C72.2345 19.8913 71.6767 19.8913 71.0957 19.8683C70.5146 19.8452 69.9568 19.9489 69.4223 20.1794L68.8645 19.004L69.3874 16.999L68.7947 16.1348L74.8259 14.268C74.5703 13.6227 74.1519 13.1387 73.5709 12.8161C72.9899 12.4934 72.3507 12.3321 71.6535 12.3321V11.9864L73.6058 11.6753C71.4443 10.6152 69.2015 9.80855 66.8773 9.25544C64.5532 8.70233 62.1709 8.42578 59.7305 8.42578C57.7085 8.42578 55.7097 8.62167 53.7342 9.01346C51.7586 9.40524 49.8528 9.96988 48.0167 10.7074C46.1807 11.4448 44.4027 12.3667 42.6828 13.4729C40.9629 14.5791 39.3941 15.8236 37.9764 17.2064C38.5807 17.2064 39.0455 17.3562 39.3709 17.6558C39.6963 17.9554 39.9984 18.2896 40.2773 18.6583C40.5562 19.0271 40.8467 19.3612 41.1489 19.6608C41.451 19.9604 41.8577 20.1218 42.369 20.1448L42.9268 19.73L42.8571 18.9695L44.0076 17.3447L43.1011 14.7866C43.2174 14.7174 43.3917 14.6022 43.6241 14.4409C43.8565 14.2795 44.0541 14.1989 44.2167 14.1989C44.914 14.1989 45.4486 14.2334 45.8204 14.3026C46.1923 14.3717 46.5177 14.4985 46.7966 14.6828C47.0755 14.8672 47.3195 15.1322 47.5287 15.4779C47.7379 15.8236 48.0632 16.2615 48.5048 16.7916L49.7599 15.8236C49.9923 15.9158 50.3642 16.0656 50.8755 16.273C51.3868 16.4805 51.9097 16.734 52.4443 17.0336C52.9788 17.3332 53.432 17.6443 53.8039 17.9669C54.1758 18.2896 54.3733 18.5892 54.3966 18.8657C54.3966 19.2114 54.2687 19.488 54.0131 19.6954C53.7574 19.9028 53.4204 20.0757 53.0021 20.214C52.5837 20.3522 52.1538 20.4559 51.7122 20.5251C51.2706 20.5942 50.829 20.6864 50.3874 20.8016C49.9458 20.9169 49.6088 21.0321 49.3764 21.1473C49.144 21.2626 49.0045 21.4585 48.958 21.735L50.9801 22.3918C50.5152 22.7836 50.0155 23.1408 49.481 23.4635C48.9464 23.7861 48.3886 24.0857 47.8076 24.3623L47.947 24.95L44.7397 26.1945V27.1624L44.4956 27.2661L44.67 26.0562L44.5305 26.0216C44.3678 26.0216 44.2749 26.0562 44.2516 26.1253C44.2284 26.1945 44.2167 26.2751 44.2167 26.3673C44.2167 26.4595 44.24 26.5517 44.2865 26.6439C44.333 26.7361 44.3446 26.8052 44.3213 26.8513L43.8681 26.6093L43.9378 26.7476C43.9378 26.8167 43.9727 26.9204 44.0424 27.0587C44.1122 27.197 44.2051 27.3237 44.3213 27.439C44.4375 27.5542 44.5305 27.6694 44.6002 27.7847C44.67 27.8999 44.7164 27.9575 44.7397 27.9575C44.7397 28.0267 44.6932 28.0958 44.6002 28.1649C44.5073 28.2341 44.3911 28.2802 44.2516 28.3032C44.1122 28.3263 44.0192 28.3608 43.9727 28.4069C43.9262 28.453 43.9262 28.4645 43.9727 28.4415C44.2981 28.4415 44.3678 28.4645 44.1819 28.5106C43.996 28.5567 43.7054 28.6719 43.3103 28.8563C42.9152 29.0407 42.555 29.3057 42.2296 29.6514C41.9042 29.9971 41.7183 30.5041 41.6718 31.1725C41.6718 31.5643 41.6834 31.9445 41.7067 32.3133C41.7299 32.682 41.7183 33.0623 41.6718 33.4541C41.3464 32.5783 40.8583 31.91 40.2076 31.449C39.5568 30.9881 38.7666 30.7576 37.8369 30.7576L36.3378 30.8959L37.07 31.3799C36.6748 31.3338 36.2681 31.2877 35.8498 31.2416C35.4314 31.1955 35.0014 31.184 34.5599 31.207C34.1183 31.2301 33.7232 31.3223 33.3745 31.4836C33.0259 31.6449 32.6773 31.8869 32.3287 32.2096L32.1195 33.7652C32.1195 34.5027 32.2822 35.1019 32.6076 35.5628C32.9329 36.0237 33.5024 36.2657 34.3158 36.2888C35.0131 36.2888 35.6987 36.185 36.3727 35.9776C37.0467 35.7702 37.7091 35.5282 38.3599 35.2517C38.1507 35.7587 37.9183 36.2427 37.6626 36.7036C37.407 37.1645 37.221 37.6715 37.1048 38.2246L37.558 38.4321C38.1158 38.0633 38.6271 38.0057 39.092 38.2592C39.5568 38.5127 40.01 38.8815 40.4516 39.3654C40.8932 39.8494 41.3464 40.3449 41.8112 40.8519C42.2761 41.3589 42.7758 41.7277 43.3103 41.9581L42.125 42.5804L39.336 41.0248C39.3593 41.0709 39.3825 41.1746 39.4057 41.3359C39.429 41.4972 39.4174 41.5318 39.3709 41.4396L38.1158 39.3309C37.3721 39.3078 36.5819 39.1926 35.7452 38.9852C34.9085 38.7778 34.0602 38.5012 33.2002 38.1555C32.3403 37.8098 31.5384 37.4295 30.7947 37.0147C30.051 36.5999 29.3654 36.162 28.7378 35.7011L28.4938 39.4C28.4938 42.2117 28.8773 44.9542 29.6443 47.6275C30.4112 50.3009 31.492 52.813 32.8865 55.1637C34.281 57.5144 35.9892 59.6577 38.0112 61.5936C40.0333 63.5295 42.2761 65.1773 44.7397 66.537C44.6235 66.0531 44.6119 65.5691 44.7048 65.0851C44.7978 64.6011 44.914 64.1172 45.0534 63.6332C45.1929 63.1492 45.344 62.6652 45.5067 62.1813C45.6693 61.6973 45.7507 61.2018 45.7507 60.6948C45.7507 59.9573 45.6345 59.1853 45.4021 58.3786C45.1697 57.572 44.8908 56.7539 44.5654 55.9242C44.24 55.0945 43.8797 54.2764 43.4846 53.4698C43.0895 52.6631 42.7758 51.9026 42.5434 51.1882C42.3109 50.4738 42.125 49.8054 41.9856 49.1832C41.8461 48.5609 41.9158 48.0193 42.1947 47.5584L41.6718 47.3164C41.8112 46.9938 41.9972 46.6826 42.2296 46.383C42.462 46.0834 42.706 45.7838 42.9617 45.4842C43.2174 45.1846 43.4149 44.862 43.5544 44.5163C43.6938 44.1706 43.7752 43.8249 43.7984 43.4792C43.7984 43.2487 43.7519 43.0067 43.6589 42.7532C43.566 42.4997 43.4846 42.2577 43.4149 42.0273L44.147 42.2001C44.5421 41.3013 45.0767 40.6906 45.7507 40.3679C46.4247 40.0453 47.273 39.8725 48.2956 39.8494C48.4119 39.8494 48.6559 39.8955 49.0278 39.9877C49.3996 40.0799 49.7947 40.2066 50.2131 40.3679C50.6314 40.5293 51.0265 40.656 51.3984 40.7482C51.7703 40.8404 52.0492 40.9326 52.2351 41.0248C52.2351 41.1861 52.3281 41.2898 52.514 41.3359C52.6999 41.382 52.8045 41.4626 52.8278 41.5779L52.758 41.8544C52.8278 41.8775 52.9905 41.9581 53.2461 42.0964C53.5018 42.2347 53.7807 42.4075 54.0828 42.615C54.3849 42.8224 54.6522 43.0067 54.8846 43.1681C55.1171 43.3294 55.2798 43.4562 55.3727 43.5483C55.7911 43.5483 56.3605 43.6866 57.081 43.9632C57.8015 44.2397 58.5917 44.5854 59.4516 45.0003C60.3116 45.4151 61.1599 45.9106 61.9966 46.4867C62.8333 47.0629 63.6235 47.6391 64.3672 48.2152C65.111 48.7914 65.6804 49.3675 66.0755 49.9437C66.4706 50.5198 66.703 51.0269 66.7727 51.4647L65.5874 52.7092C65.6804 53.8846 65.599 54.7834 65.3434 55.4057C65.0877 56.0279 64.6926 56.5464 64.158 56.9613C63.6235 57.3761 63.0076 57.7218 62.3103 57.9984C61.6131 58.2749 60.8577 58.6667 60.0443 59.1737C60.0443 59.6347 59.9281 60.1302 59.6957 60.6602C59.4632 61.1903 59.1727 61.6973 58.8241 62.1813C58.4755 62.6652 58.0571 63.0686 57.569 63.3912C57.081 63.7139 56.5929 63.8752 56.1048 63.8752L54.6406 62.769C54.6871 62.815 54.6871 62.8957 54.6406 63.0109C54.5941 63.1262 54.536 63.1492 54.4663 63.0801C54.6987 63.518 54.7568 64.025 54.6406 64.6011C54.5244 65.1773 54.3268 65.765 54.0479 66.3642C53.769 66.9634 53.4553 67.528 53.1067 68.0581C52.758 68.5881 52.4443 69.0375 52.1654 69.4063C53.4204 69.7289 54.6755 69.9709 55.9305 70.1322C57.1856 70.2936 58.4522 70.3742 59.7305 70.3742Z" fill="#80D52F"/>
<path d="M54.1293 82C52.8482 81.9999 51.5957 82.364 50.5305 83.0463C49.4652 83.7285 48.6349 84.6982 48.1446 85.8327C47.6543 86.9673 47.526 88.2157 47.776 89.4202C48.0259 90.6246 48.6429 91.731 49.5489 92.5993L59.1207 101.774C59.1952 101.846 59.2837 101.902 59.3812 101.941C59.4787 101.98 59.5832 102 59.6888 102C59.7943 102 59.8989 101.98 59.9964 101.941C60.0938 101.902 60.1824 101.846 60.2569 101.774L69.8287 92.5977C71.0106 91.4271 71.6652 89.8581 71.6513 88.2291C71.6373 86.6001 70.956 85.0416 69.7543 83.8897C68.5525 82.7377 66.9266 82.0847 65.2271 82.0714C63.5276 82.058 61.8907 82.6854 60.6694 83.8183L59.6888 84.7567L58.7098 83.8183C58.1081 83.2416 57.3937 82.7842 56.6075 82.4722C55.8213 82.1602 54.9803 81.9998 54.1293 82Z" fill="#CF451D"/>
</svg>
