<svg width="30" height="83" viewBox="0 0 30 83" fill="none" xmlns="http://www.w3.org/2000/svg">
<g clip-path="url(#clip0_433_10279)">
<path d="M3.03006 82.0771C2.31182 81.8569 5.25135 66.5525 6.8109 58.9277C7.62485 58.8089 9.43232 58.6263 10.1506 58.8465C11.0484 59.1217 18.2316 78.1427 18.0252 78.8161C17.8188 79.4894 13.6084 80.4087 13.4438 79.7444C13.2791 79.0801 12.9643 75.3006 12.3598 74.8697C11.7552 74.4389 9.02916 75.3221 8.03719 75.7546C7.04522 76.1872 7.82693 80.8464 7.10284 81.6067C6.37875 82.3669 3.92786 82.3522 3.03006 82.0771Z" fill="#585858" stroke="#585858" stroke-width="2"/>
<path d="M7.58485 72.4239C6.98029 71.993 8.67485 66.8651 8.98444 65.8551C9.11907 65.425 11.855 70.9091 11.7952 71.5046C11.7355 72.1001 8.1894 72.8547 7.58485 72.4239Z" fill="#D9D9D9"/>
<path d="M22.9453 65.5578L23.0915 66.4238C23.2755 67.513 22.5416 68.545 21.4525 68.7289L20.3204 68.9201C19.3897 69.0773 18.7626 69.9592 18.9198 70.8899C19.077 71.8205 19.9588 72.4476 20.8895 72.2904L22.0217 72.0992C23.1108 71.9153 24.1428 72.6491 24.3268 73.7383L24.8325 76.7329C24.9649 77.5166 25.7075 78.0447 26.4912 77.9123C27.275 77.78 27.803 77.0373 27.6707 76.2536L27.1649 73.259C26.981 72.1698 27.7148 71.1378 28.804 70.9538L29.7587 70.7926C30.6894 70.6354 31.3164 69.7535 31.1593 68.8229C31.0021 67.8922 30.1202 67.2651 29.1895 67.4223L28.2348 67.5835C27.1456 67.7675 26.1136 67.0337 25.9297 65.9445L25.7834 65.0785C25.651 64.2947 24.9084 63.7667 24.1247 63.899C23.341 64.0314 22.8129 64.774 22.9453 65.5578Z" fill="#585858" stroke="#585858"/>
</g>
<defs>
<clipPath id="clip0_433_10279">
<rect width="29.8477" height="82.303" fill="white"/>
</clipPath>
</defs>
</svg>
