<svg width="149" height="106" viewBox="0 0 149 106" fill="none" xmlns="http://www.w3.org/2000/svg">
<path d="M90.7335 100.002L138.869 104.586C143.4 105.023 144.56 102.493 144.56 100.35L144.51 97.7502L85.3102 89.396C85.3102 92.3626 87.7194 100.002 90.7335 100.002Z" fill="#C62828"/>
<path d="M92.4881 97.7402L100.063 98.4049L140.624 102.324C142.805 102.324 144.56 100.588 144.56 98.4446L142.408 32.7023C142.408 30.5592 140.643 28.8228 138.472 28.8228L92.4881 24.4771C89.4741 24.4771 87.0251 26.8881 87.0251 29.8547V92.3625C87.0251 95.3292 89.4641 97.7402 92.4881 97.7402Z" fill="#F44336"/>
<path d="M78.3598 100.003L30.2243 104.587C25.6933 105.023 24.5333 102.493 24.5333 100.35L24.5829 97.7504L83.7831 89.3862C83.7831 92.3628 81.3738 100.003 78.3598 100.003Z" fill="#C62828"/>
<path d="M76.6049 97.7405L69.0896 98.4053L28.4694 102.334C26.2882 102.334 24.5333 100.598 24.5333 98.4549L26.6848 32.7125C26.6848 30.5694 28.4496 28.8331 30.6209 28.8331L76.6049 24.4873C79.6189 24.4873 82.0678 26.8983 82.0678 29.865V92.3728C82.0678 95.3295 79.6288 97.7405 76.6049 97.7405Z" fill="#F44336"/>
<path d="M99.1698 83.0264H69.9415L69.0492 98.435L78.1706 99.2883C78.1706 99.2883 80.1238 104.17 84.5457 104.17C88.9677 104.17 90.9208 99.2883 90.9208 99.2883L100.042 98.435L99.1698 83.0264Z" fill="#424242"/>
<path d="M99.9531 99.6453L91.4562 98.9111M69.1384 99.6453L77.6353 98.9111" stroke="#616161" stroke-width="2.5" stroke-miterlimit="10"/>
<path d="M139.722 32.5635L135.756 27.1064L84.5469 85.3478L33.338 27.1064L29.3721 32.5635L28.8169 97.4029C28.8169 97.4029 39.3462 98.7225 53.4151 97.2938C65.6695 96.0536 71.4398 92.8786 75.5346 93.7021C80.4522 94.6943 81.3445 97.7204 81.5032 98.2364C81.9493 99.6651 82.8317 100.776 84.5469 100.776C86.2622 100.776 87.0256 100.181 87.5511 98.415C87.7097 97.899 88.6417 94.7042 93.5593 93.712C97.6541 92.8885 103.424 96.0635 115.679 97.3037C129.748 98.7325 140.277 97.4128 140.277 97.4128L139.722 32.5635Z" fill="#94C6D6"/>
<path d="M134.417 91.1521L134.576 64.9683H139.999L140.276 97.4029C140.276 97.4029 135.964 95.7261 134.417 91.1521Z" fill="url(#paint0_linear_388_1235)"/>
<path d="M134.665 75.8926L134.417 91.1623C134.417 91.1623 122.559 90.5472 103.672 87.273C91.3185 85.1298 84.5468 91.9958 84.5468 91.9958L84.4377 75.8926H134.665Z" fill="url(#paint1_linear_388_1235)"/>
<path d="M34.4287 75.8926L34.6766 91.1623C34.6766 91.1623 46.5345 90.5472 65.4218 87.273C77.7754 85.1298 84.5471 91.9958 84.5471 91.9958L84.438 75.8926H34.4287Z" fill="url(#paint2_linear_388_1235)"/>
<path d="M34.6764 91.1526L34.5178 64.9688H29.0846L28.8169 97.4034C28.8169 97.4034 33.1198 95.7266 34.6764 91.1526Z" fill="url(#paint3_linear_388_1235)"/>
<path d="M135.756 27.1064C135.756 27.1064 109.442 22.1554 97.8919 21.5105C87.0255 20.9053 84.7947 26.4417 84.5766 27.1064H84.5369C84.3089 26.4417 82.0781 20.9152 71.2117 21.5105C59.6612 22.1554 33.3478 27.1064 33.3478 27.1064L32.1779 91.0033C32.1779 91.0033 63.508 84.435 71.0927 85.2883C78.6774 86.1416 84.5469 91.9955 84.5469 91.9955C84.5469 91.9955 90.4262 86.1416 98.0109 85.2883C105.596 84.435 136.926 91.0033 136.926 91.0033L135.756 27.1064Z" fill="url(#paint4_linear_388_1235)"/>
<path opacity="0.26" d="M74.2545 21.5205L68.9006 85.2189C69.7434 85.1991 70.487 85.2189 71.0818 85.2884C78.6566 86.1317 84.5459 91.9956 84.5459 91.9956L84.3773 27.1065C84.3773 27.1065 83.0884 22.0265 74.2545 21.5205Z" fill="#94C6D6"/>
<path opacity="0.5" d="M46.1868 29.944C43.5099 30.4103 41.3188 30.8072 40.0695 31.0254C40.0695 31.6406 40.0695 32.3153 40.0596 33.0396C41.1601 32.8411 43.4008 32.4344 46.1868 31.9482V29.944ZM70.319 26.7491V28.7236C75.6035 28.7136 78.5283 30.0432 79.49 30.579C79.49 29.7554 79.4999 29.0212 79.4999 28.3763C77.864 27.6421 74.8698 26.7392 70.319 26.7491ZM66.0161 26.9972C61.723 27.4337 55.7445 28.3465 50.4898 29.2197V31.2338C55.7049 30.3706 61.6933 29.4479 66.0161 28.9915V26.9972ZM55.457 35.5597C49.0522 36.5519 42.6275 37.7029 40.0497 38.1692V40.1833C42.2904 39.7765 48.8638 38.5859 55.457 37.564V35.5597ZM67.3843 34.0119C65.2923 34.1806 62.6253 34.5179 59.7599 34.9148V36.919C62.6847 36.5023 65.4212 36.165 67.5429 35.9864C74.6616 35.401 78.4192 37.1472 79.4702 37.7426V35.53C77.5269 34.6668 73.6305 33.496 67.3843 34.0119ZM47.2477 44.0429C44.1147 44.5787 41.4972 45.045 40.0497 45.3129V47.3271C41.3485 47.089 44.0056 46.6127 47.2477 46.0571V44.0429ZM79.4702 42.7035C77.5368 41.8304 73.6305 40.6397 67.3248 41.1656C63.2895 41.493 57.1127 42.4158 51.5506 43.3286V45.3427C57.1623 44.42 63.4283 43.4873 67.4933 43.15C74.731 42.5547 78.4986 44.3704 79.4702 44.9359V42.7035ZM79.4801 49.877C77.5666 49.0039 73.6404 47.7835 67.2851 48.3093C66.6407 48.359 65.9467 48.4284 65.213 48.5078V50.5021C66.0161 50.4128 66.7597 50.3433 67.4537 50.2838C74.8302 49.6786 78.5977 51.5736 79.49 52.1094C79.4801 51.3653 79.4801 50.6211 79.4801 49.877ZM60.9001 49.0436C53.1469 50.1052 43.4901 51.8217 40.0596 52.4468V54.4609C43.0836 53.9053 52.9684 52.1293 60.9001 51.0379V49.0436ZM49.1017 58.0129C45.2053 58.6678 41.8343 59.273 40.0596 59.5905V61.6047C41.6658 61.307 45.0863 60.6918 49.1017 60.0172V58.0129ZM79.49 57.0604C77.5963 56.1873 73.6503 54.9372 67.2356 55.463C63.6663 55.7607 58.4314 56.5048 53.4146 57.3085V59.3127C58.4809 58.4991 63.8051 57.7351 67.3942 57.4375C74.959 56.8124 78.7365 58.8365 79.49 59.2929V57.0604ZM79.5098 71.4174C77.7054 70.5542 73.799 69.2544 67.3545 69.7406V71.7349C75.5737 71.0701 79.3016 73.5308 79.5098 73.6796V71.4174ZM47.2477 72.608C44.194 73.1339 41.5964 73.5903 40.0794 73.8681V75.8822C41.4774 75.6243 44.0948 75.1579 47.2477 74.6122V72.608ZM51.5506 71.8936V73.9078C55.3975 73.2827 59.5319 72.6477 63.0516 72.2012V70.197C59.5517 70.6336 55.4173 71.2586 51.5506 71.8936ZM58.4413 77.9658C51.3424 78.9977 43.3612 80.4165 40.0893 81.0118V83.026C43.0538 82.4803 51.1838 81.0317 58.4413 79.97V77.9658ZM79.5198 78.6008C77.7252 77.7277 73.7296 76.3684 67.067 76.9141C65.8079 77.0133 64.3405 77.182 62.7442 77.3804V79.3747C64.4 79.1664 65.9268 78.9977 67.2256 78.8886C75.7126 78.1841 79.4404 80.8233 79.4801 80.8432L79.5297 80.7836C79.5297 80.099 79.5297 79.3747 79.5198 78.6008ZM56.964 63.8966C50.2022 64.9086 43.034 66.1886 40.0695 66.7343V68.7484C42.7266 68.2622 50.0337 66.9525 56.964 65.9008V63.8966ZM79.4999 64.234C77.636 63.3608 73.6801 62.071 67.1761 62.6068C65.5104 62.7457 63.4779 62.9838 61.2769 63.2815V65.2857C63.5473 64.9781 65.6393 64.73 67.3446 64.5911C75.1573 63.9462 78.9348 66.1191 79.5098 66.4862C79.4999 65.752 79.4999 64.9979 79.4999 64.234ZM108.748 29.4776C116.957 30.569 127.685 32.5137 130.6 33.0396C130.6 32.3054 130.6 31.6406 130.59 31.0254C127.179 30.4004 116.739 28.5351 108.738 27.4734V29.4776H108.748ZM104.435 26.9773C104.009 26.9376 103.602 26.8979 103.216 26.8682C96.9992 26.3522 93.1127 27.5131 91.1595 28.3763C91.1595 29.0212 91.1694 29.7654 91.1694 30.579C92.2799 29.9638 96.0375 28.2672 103.057 28.8426C103.493 28.8823 103.959 28.922 104.435 28.9716V26.9773ZM122.579 38.7744C125.259 39.231 127.936 39.7039 130.61 40.1933V38.1791C129.053 37.8914 126.099 37.3655 122.579 36.7702V38.7744ZM118.276 36.0459C112.912 35.1827 107.122 34.3294 103.275 34.0119C97.029 33.496 93.1325 34.6668 91.1794 35.53V37.7426C92.2303 37.1472 95.9879 35.401 103.107 35.9864C106.983 36.3039 112.863 37.177 118.266 38.0501V36.0459H118.276ZM117.443 43.0508V45.055C123.204 45.9777 128.567 46.9501 130.61 47.3271V45.3129C128.3 44.8962 123.035 43.9536 117.443 43.0508ZM108.738 48.9146C106.745 48.6566 104.901 48.4383 103.374 48.3193C97.0191 47.7934 93.0929 49.0138 91.1794 49.8869V52.1193C92.0717 51.5935 95.8491 49.6885 103.216 50.2937C104.782 50.4227 106.686 50.641 108.738 50.9188V48.9146ZM113.051 49.5198V51.524C120.239 52.5956 127.982 53.9946 130.6 54.4708V52.4567C127.645 51.911 120.061 50.5616 113.051 49.5198ZM113.923 56.7926C110.007 56.1972 106.21 55.6912 103.434 55.463C97.0091 54.9372 93.0631 56.1873 91.1794 57.0604V59.3028C91.9329 58.8365 95.7103 56.8223 103.275 57.4474C106.081 57.6756 109.958 58.2015 113.933 58.8067V56.7926H113.923ZM118.226 57.4672V59.4814C123.62 60.3545 128.557 61.2475 130.59 61.6146V59.6004C128.329 59.1837 123.471 58.3106 118.226 57.4672ZM125.236 65.7818V67.7959C127.576 68.2027 129.489 68.55 130.58 68.7484V66.7343C129.39 66.516 127.507 66.1786 125.236 65.7818ZM109.621 70.455C107.35 70.1474 105.248 69.8993 103.543 69.7604C96.9596 69.2147 92.9838 70.5443 91.1595 71.4174V73.6796C91.3677 73.5308 95.1155 71.0503 103.394 71.7349C105.139 71.8738 107.301 72.1318 109.64 72.4493V70.455H109.621ZM113.923 71.0701V73.0743C120.745 74.1062 127.903 75.3961 130.58 75.8822V73.8681C127.606 73.3323 120.586 72.0822 113.923 71.0701ZM117.443 78.7596C112.416 77.9559 107.162 77.2018 103.592 76.9042C96.9199 76.3585 92.9342 77.7277 91.1397 78.5909V80.7737L91.1893 80.8333C91.219 80.8134 94.9469 78.1742 103.444 78.8786C107.043 79.1763 112.387 79.9502 117.463 80.7638V78.7596H117.443ZM121.756 79.474V81.4881C125.613 82.133 128.904 82.7283 130.57 83.0359V81.0218C128.756 80.6844 125.504 80.099 121.756 79.474ZM103.315 62.5968C96.91 62.0908 93.0036 63.3708 91.1595 64.234V66.4862C91.7346 66.1191 95.5021 63.9462 103.315 64.5911V62.5968ZM107.628 63.0533V65.0475C111.713 65.5635 116.62 66.3374 120.933 67.0518V65.0376C116.591 64.3233 111.683 63.5593 107.628 63.0533ZM100.132 41.0465C95.6905 41.0763 92.7657 41.9891 91.1893 42.7035V44.926C92.0221 44.4497 94.8676 43.0706 100.132 43.021V41.0465ZM104.435 41.2648V43.2591C106.904 43.5072 109.968 43.9239 113.13 44.3902V42.386C109.958 41.9097 106.904 41.5029 104.435 41.2648Z" fill="#757575"/>
<path d="M91.646 97.6809C90.5355 97.5817 89.5143 98.2663 89.1574 99.3279C88.622 100.945 87.3728 103.059 84.5471 103.059C81.6917 103.059 80.4325 100.935 79.8872 99.318C79.7175 98.8112 79.3833 98.3757 78.9377 98.0809C78.4922 97.786 77.9609 97.6487 77.4284 97.6908L77.0417 97.7206L77.0517 98.0381C77.0517 100.025 77.8403 101.93 79.2441 103.335C80.6479 104.74 82.5519 105.529 84.5372 105.529C86.5225 105.529 88.4265 104.74 89.8303 103.335C91.2341 101.93 92.0227 100.025 92.0227 98.0381C92.0227 97.9389 92.0128 97.7107 92.0128 97.7107L91.646 97.6809Z" fill="#616161"/>
<path d="M116.273 23.8125V40.6249L121.275 35.8173L126.079 40.6249V25.2548C122.863 24.4655 119.579 23.9826 116.273 23.8125Z" fill="#00A1E0"/>
<path d="M19.4837 12.9056C18.1611 14.2017 16.3838 14.9276 14.5327 14.9276C12.6816 14.9276 10.9042 14.2017 9.58166 12.9056C9.51846 12.8406 9.44288 12.7889 9.3594 12.7536C9.27592 12.7184 9.18622 12.7002 9.0956 12.7002C9.00498 12.7002 8.91528 12.7184 8.8318 12.7536C8.74831 12.7889 8.67274 12.8406 8.60954 12.9056C8.54392 12.9708 8.49184 13.0483 8.4563 13.1337C8.42076 13.2191 8.40247 13.3108 8.40247 13.4033C8.40247 13.4958 8.42076 13.5874 8.4563 13.6729C8.49184 13.7583 8.54392 13.8358 8.60954 13.901C9.91415 15.215 10.6464 16.992 10.6464 18.8443C10.6464 20.6966 9.91415 22.4737 8.60954 23.7877C8.5446 23.8509 8.49298 23.9265 8.45773 24.0101C8.42248 24.0936 8.40432 24.1834 8.40432 24.2741C8.40432 24.3647 8.42248 24.4545 8.45773 24.5381C8.49298 24.6216 8.5446 24.6972 8.60954 24.7605C8.73893 24.8797 8.9084 24.9459 9.0843 24.9459C9.26019 24.9459 9.42966 24.8797 9.55905 24.7605C10.8749 23.4604 12.6496 22.7314 14.4987 22.7314C16.3479 22.7314 18.1226 23.4604 19.4385 24.7605C19.5036 24.8261 19.5811 24.8783 19.6664 24.9138C19.7518 24.9494 19.8433 24.9677 19.9358 24.9677C20.0283 24.9677 20.1198 24.9494 20.2052 24.9138C20.2905 24.8783 20.368 24.8261 20.4332 24.7605C20.4988 24.6953 20.5509 24.6177 20.5864 24.5323C20.622 24.4469 20.6402 24.3553 20.6402 24.2628C20.6402 24.1702 20.622 24.0786 20.5864 23.9932C20.5509 23.9078 20.4988 23.8302 20.4332 23.765C19.1286 22.4511 18.3963 20.674 18.3963 18.8217C18.3963 16.9694 19.1286 15.1923 20.4332 13.8784C20.4981 13.8151 20.5497 13.7395 20.585 13.656C20.6202 13.5724 20.6384 13.4827 20.6384 13.392C20.6384 13.3013 20.6202 13.2115 20.585 13.128C20.5497 13.0444 20.4981 12.9688 20.4332 12.9056C20.3038 12.7863 20.1343 12.7201 19.9584 12.7201C19.7825 12.7201 19.6131 12.7863 19.4837 12.9056Z" fill="#F44336"/>
<path d="M20.0491 34.1492C19.8382 34.3682 19.5854 34.5423 19.3057 34.6613C19.026 34.7802 18.7252 34.8415 18.4214 34.8415C18.1175 34.8415 17.8167 34.7802 17.537 34.6613C17.2574 34.5423 17.0045 34.3682 16.7936 34.1492C16.7476 34.1063 16.687 34.0824 16.6241 34.0824C16.5611 34.0824 16.5006 34.1063 16.4545 34.1492C16.4131 34.1915 16.3899 34.2483 16.3899 34.3076C16.3899 34.3668 16.4131 34.4236 16.4545 34.4659C16.6768 34.6773 16.8539 34.9317 16.9748 35.2137C17.0958 35.4956 17.1582 35.7993 17.1582 36.1062C17.1582 36.413 17.0958 36.7167 16.9748 36.9987C16.8539 37.2806 16.6768 37.535 16.4545 37.7464C16.4131 37.7887 16.3899 37.8455 16.3899 37.9048C16.3899 37.964 16.4131 38.0208 16.4545 38.0631C16.4991 38.0999 16.555 38.12 16.6128 38.12C16.6705 38.12 16.7265 38.0999 16.771 38.0631C16.9822 37.8406 17.2364 37.6635 17.5182 37.5424C17.8 37.4214 18.1034 37.359 18.4101 37.359C18.7167 37.359 19.0201 37.4214 19.3019 37.5424C19.5837 37.6635 19.8379 37.8406 20.0491 38.0631C20.0951 38.1061 20.1557 38.1299 20.2186 38.1299C20.2816 38.1299 20.3422 38.1061 20.3882 38.0631C20.4311 38.0171 20.455 37.9564 20.455 37.8934C20.455 37.8305 20.4311 37.7698 20.3882 37.7238C20.1694 37.5127 19.9954 37.2597 19.8765 36.9798C19.7576 36.6999 19.6963 36.399 19.6963 36.0948C19.6963 35.7907 19.7576 35.4898 19.8765 35.2099C19.9954 34.93 20.1694 34.677 20.3882 34.4659C20.4267 34.4178 20.4477 34.3579 20.4477 34.2962C20.4477 34.2346 20.4267 34.1747 20.3882 34.1266C20.3393 34.0866 20.2771 34.0667 20.2142 34.0709C20.1512 34.0751 20.0922 34.1031 20.0491 34.1492Z" fill="#F44336"/>
<path d="M32.7536 13.1542C32.5424 13.3767 32.2882 13.5538 32.0064 13.6749C31.7246 13.796 31.4212 13.8584 31.1145 13.8584C30.8079 13.8584 30.5045 13.796 30.2227 13.6749C29.9409 13.5538 29.6867 13.3767 29.4755 13.1542C29.4295 13.1113 29.3689 13.0874 29.306 13.0874C29.243 13.0874 29.1824 13.1113 29.1364 13.1542C29.095 13.1965 29.0718 13.2534 29.0718 13.3126C29.0718 13.3718 29.095 13.4287 29.1364 13.471C29.3587 13.6823 29.5357 13.9367 29.6567 14.2187C29.7777 14.5007 29.8401 14.8043 29.8401 15.1112C29.8401 15.418 29.7777 15.7217 29.6567 16.0037C29.5357 16.2857 29.3587 16.5401 29.1364 16.7514C29.1095 16.7988 29.0988 16.8537 29.1061 16.9077C29.1134 16.9617 29.1382 17.0119 29.1767 17.0504C29.2152 17.089 29.2653 17.1138 29.3193 17.1211C29.3733 17.1284 29.4282 17.1177 29.4755 17.0908C29.6867 16.8683 29.9409 16.6911 30.2227 16.5701C30.5045 16.449 30.8079 16.3866 31.1145 16.3866C31.4212 16.3866 31.7246 16.449 32.0064 16.5701C32.2882 16.6911 32.5424 16.8683 32.7536 17.0908C32.7958 17.1322 32.8526 17.1554 32.9118 17.1554C32.971 17.1554 33.0278 17.1322 33.0701 17.0908C33.113 17.0447 33.1368 16.9841 33.1368 16.9211C33.1368 16.8581 33.113 16.7975 33.0701 16.7514C32.8478 16.5401 32.6707 16.2857 32.5498 16.0037C32.4288 15.7217 32.3664 15.418 32.3664 15.1112C32.3664 14.8043 32.4288 14.5007 32.5498 14.2187C32.6707 13.9367 32.8478 13.6823 33.0701 13.471C33.1115 13.4287 33.1347 13.3718 33.1347 13.3126C33.1347 13.2534 33.1115 13.1965 33.0701 13.1542C33.0278 13.1128 32.971 13.0895 32.9118 13.0895C32.8526 13.0895 32.7958 13.1128 32.7536 13.1542Z" fill="#F44336"/>
<defs>
<linearGradient id="paint0_linear_388_1235" x1="137.335" y1="87.5118" x2="137.58" y2="70.3439" gradientUnits="userSpaceOnUse">
<stop offset="0.267" stop-color="#82AEC0"/>
<stop offset="1" stop-color="#82AEC0" stop-opacity="0"/>
</linearGradient>
<linearGradient id="paint1_linear_388_1235" x1="90.4133" y1="83.9402" x2="132.859" y2="83.9402" gradientUnits="userSpaceOnUse">
<stop stop-color="#2F7889"/>
<stop offset="1" stop-color="#82AEC0"/>
</linearGradient>
<linearGradient id="paint2_linear_388_1235" x1="78.5775" y1="83.9402" x2="36.2262" y2="83.9402" gradientUnits="userSpaceOnUse">
<stop stop-color="#2F7889"/>
<stop offset="1" stop-color="#82AEC0"/>
</linearGradient>
<linearGradient id="paint3_linear_388_1235" x1="31.7546" y1="87.5122" x2="31.5084" y2="70.3444" gradientUnits="userSpaceOnUse">
<stop offset="0.267" stop-color="#82AEC0"/>
<stop offset="1" stop-color="#82AEC0" stop-opacity="0"/>
</linearGradient>
<linearGradient id="paint4_linear_388_1235" x1="84.5518" y1="21.4644" x2="84.5518" y2="91.9955" gradientUnits="userSpaceOnUse">
<stop stop-color="#E6E6E6"/>
<stop offset="1" stop-color="white"/>
</linearGradient>
</defs>
</svg>
